<svg xmlns="http://www.w3.org/2000/svg" viewBox="0 0 255.058 144.793"><g fill="none" fill-rule="evenodd"><path d="M147.488 45.712h22.866v23.375h11.561c5.34 0 10.831-.951 15.887-2.664 2.485-.843 5.273-2.015 7.724-3.49-3.228-4.214-4.876-9.535-5.36-14.78-.66-7.135.78-16.421 5.608-22.005l2.404-2.78 2.864 2.303c7.211 5.793 13.276 13.889 14.345 23.118 8.683-2.554 18.878-1.95 26.531 2.467l3.14 1.812-1.652 3.226C246.933 68.926 233.4 72.84 220.17 72.147c-19.797 49.309-62.898 72.653-115.157 72.653-27 0-51.77-10.093-65.876-34.047l-.231-.39-2.055-4.182c-4.768-10.544-6.352-22.095-5.278-33.637l.323-3.457H51.45V45.712h22.865V22.846h45.733V-.02h27.44v45.732" fill="#364548"/><path d="M221.57 54.36c1.533-11.916-7.384-21.275-12.914-25.719-6.373 7.368-7.363 26.678 2.635 34.808-5.58 4.956-17.337 9.448-29.376 9.448H35.37c-1.17 12.567 1.036 24.14 6.075 34.045l1.667 3.05a56.536 56.536 0 003.455 5.184c6.025.387 11.58.52 16.662.408h.002c9.987-.22 18.136-1.4 24.312-3.54a1.761 1.761 0 011.153 3.326c-.822.286-1.678.552-2.562.805h-.003c-4.863 1.389-10.078 2.323-16.806 2.738.4.007-.416.06-.418.06-.229.015-.517.048-.747.06-2.648.149-5.506.18-8.428.18-3.196 0-6.343-.06-9.862-.24l-.09.06c12.21 13.724 31.302 21.955 55.234 21.955 50.648 0 93.608-22.452 112.632-72.857 13.496 1.385 26.467-2.057 32.367-13.575-9.398-5.423-21.484-3.694-28.443-.196" fill="#22a0c8"/><path d="M221.57 54.36c1.533-11.916-7.384-21.275-12.914-25.719-6.373 7.368-7.363 26.678 2.635 34.808-5.58 4.956-17.337 9.448-29.376 9.448H44.048c-.598 19.246 6.544 33.855 19.18 42.687h.003c9.987-.22 18.136-1.4 24.312-3.54a1.761 1.761 0 011.153 3.326c-.822.286-1.678.552-2.562.805h-.003c-4.863 1.389-10.526 2.443-17.254 2.858-.002 0-.163-.155-.165-.155 17.237 8.842 42.23 8.81 70.885-2.197 32.13-12.344 62.029-35.86 82.89-62.757-.314.142-.62.287-.917.436" fill="#37b1d9"/><path d="M35.645 88.166c.91 6.732 2.88 13.035 5.8 18.776l1.667 3.05a56.432 56.432 0 003.455 5.184c6.026.387 11.581.52 16.664.408 9.987-.22 18.136-1.4 24.312-3.54a1.761 1.761 0 011.153 3.326c-.822.286-1.678.552-2.562.805h-.003c-4.863 1.389-10.496 2.383-17.224 2.799-.231.014-.634.017-.867.03-2.646.148-5.475.239-8.398.239-3.195 0-6.463-.061-9.98-.24 12.21 13.724 31.42 21.985 55.352 21.985 43.36 0 81.084-16.458 102.979-52.822H35.645" fill="#1b81a5"/><path d="M45.367 88.166c2.592 11.82 8.821 21.099 17.864 27.418 9.987-.22 18.136-1.4 24.312-3.54a1.761 1.761 0 011.153 3.326c-.822.286-1.678.552-2.562.805h-.003c-4.863 1.389-10.615 2.383-17.344 2.799 17.236 8.84 42.157 8.713 70.81-2.293 17.334-6.66 34.017-16.574 48.984-28.515H45.367" fill="#1d91b4"/><path d="M55.26 49.523h19.818v19.818H55.26zm1.651 1.652h1.564V67.69h-1.564zm2.94 0h1.627V67.69h-1.626V51.175zm3.002 0h1.627V67.69h-1.627zm3.004 0h1.626V67.69h-1.626zm3.003 0h1.626V67.69H68.86zm3.002 0h1.565V67.69h-1.565zm6.264-24.518h19.819v19.817h-19.82V26.657zm1.652 1.652h1.563v16.514h-1.563zm2.94 0h1.626v16.514h-1.625V28.309zm3.002 0h1.626v16.514H85.72zm3.003 0h1.626v16.514h-1.626zm3.003 0h1.627v16.514h-1.627zm3.002 0h1.566v16.514h-1.566z" fill="#23a3c2"/><path d="M78.126 49.523h19.819v19.818h-19.82V49.523zm1.652 1.652h1.563V67.69h-1.563zm2.94 0h1.626V67.69h-1.625V51.175zm3.002 0h1.626V67.69H85.72zm3.003 0h1.626V67.69h-1.626zm3.003 0h1.627V67.69h-1.627zm3.002 0h1.566V67.69h-1.566z" fill="#34bbde"/><path d="M100.993 49.523h19.818v19.818h-19.818zm1.651 1.652h1.563V67.69h-1.563zm2.94 0h1.626V67.69h-1.626zm3.003 0h1.626V67.69h-1.626zm3.003 0h1.626V67.69h-1.626zm3.002 0h1.628V67.69h-1.628zm3.003 0h1.564V67.69h-1.564z" fill="#23a3c2"/><path d="M100.993 26.657h19.818v19.817h-19.818zm1.651 1.652h1.563v16.514h-1.563zm2.94 0h1.626v16.514h-1.626zm3.003 0h1.626v16.514h-1.626zm3.003 0h1.626v16.514h-1.626zm3.002 0h1.628v16.514h-1.628zm3.003 0h1.564v16.514h-1.564zm6.264 21.214h19.818v19.818h-19.818zm1.652 1.652h1.563V67.69h-1.563zm2.94 0h1.626V67.69h-1.626zm3.002 0h1.626V67.69h-1.626zm3.003 0h1.627V67.69h-1.627zm3.003 0h1.627V67.69h-1.627zm3.003 0h1.564V67.69h-1.564z" fill="#34bbde"/><path d="M123.859 26.657h19.818v19.817h-19.818zm1.652 1.652h1.563v16.514h-1.563zm2.94 0h1.626v16.514h-1.626zm3.002 0h1.626v16.514h-1.626zm3.003 0h1.627v16.514h-1.627zm3.003 0h1.627v16.514h-1.627zm3.003 0h1.564v16.514h-1.564z" fill="#23a3c2"/><path d="M123.859 3.79h19.818v19.82h-19.818zm1.652 1.651h1.563v16.516h-1.563V5.44zm2.94 0h1.626v16.516h-1.626V5.44zm3.002 0h1.626v16.516h-1.626V5.44zm3.003 0h1.627v16.516h-1.627V5.44zm3.003 0h1.627v16.516h-1.627V5.44zm3.003 0h1.564v16.516h-1.564V5.44z" fill="#34bbde"/><path d="M146.725 49.523h19.818v19.818h-19.818zm1.65 1.652h1.565V67.69h-1.564V51.175zm2.94 0h1.627V67.69h-1.626V51.175zm3.004 0h1.627V67.69h-1.627zm3.002 0h1.627V67.69h-1.627zm3.004 0h1.626V67.69h-1.626zm3.002 0h1.564V67.69h-1.564z" fill="#23a3c2"/><path d="M96.704 101.472a5.468 5.468 0 11-.002 10.935 5.468 5.468 0 01.002-10.935" fill="#d3ecec"/><path d="M96.704 103.023c.5 0 .977.094 1.417.265a1.598 1.598 0 00.798 2.98c.605 0 1.13-.335 1.402-.831a3.915 3.915 0 11-3.617-2.414M0 90.142h254.327c-5.537-1.404-17.52-3.302-15.544-10.56-10.07 11.652-34.353 8.175-40.482 2.43-6.824 9.898-46.554 6.135-49.325-1.576-8.556 10.041-35.067 10.041-43.623 0-2.773 7.711-42.502 11.474-49.327 1.575-6.128 5.746-30.41 9.223-40.48-2.428C17.522 86.84 5.539 88.738 0 90.143" fill="#364548"/><path d="M111.237 140.87c-13.54-6.425-20.971-15.16-25.106-24.694-5.03 1.435-11.075 2.353-18.1 2.747-2.646.148-5.43.224-8.35.224-3.368 0-6.917-.1-10.643-.297 12.417 12.41 27.692 21.964 55.976 22.138 2.088 0 4.16-.04 6.223-.118" fill="#bdd9d7"/><path d="M91.16 124.974c-1.873-2.543-3.69-5.739-5.026-8.8-5.03 1.437-11.077 2.355-18.103 2.75 4.826 2.619 11.727 5.046 23.13 6.05" fill="#d3ecec"/></g></svg>