<svg id="svg" version="1.1" xmlns="http://www.w3.org/2000/svg" xmlns:xlink="http://www.w3.org/1999/xlink" width="400" height="400" viewBox="0, 0, 400,400"><g id="svgg"><path id="path0" d="M132.816 32.981 C 131.753 34.261,133.314 36.228,134.700 35.355 C 136.085 34.483,135.592 32.400,134.000 32.400 C 133.614 32.400,133.081 32.661,132.816 32.981 M280.816 44.981 C 279.753 46.261,281.314 48.228,282.700 47.355 C 284.085 46.483,283.592 44.400,282.000 44.400 C 281.614 44.400,281.081 44.661,280.816 44.981 M300.816 56.981 C 299.753 58.261,301.314 60.228,302.700 59.355 C 304.085 58.483,303.592 56.400,302.000 56.400 C 301.614 56.400,301.081 56.661,300.816 56.981 M40.816 84.981 C 39.753 86.261,41.314 88.228,42.700 87.355 C 44.085 86.483,43.592 84.400,42.000 84.400 C 41.614 84.400,41.081 84.661,40.816 84.981 M149.600 133.911 C 149.600 134.246,151.066 135.600,151.428 135.600 C 151.549 135.600,151.512 135.375,151.347 135.100 C 151.128 134.735,151.223 134.743,151.698 135.128 C 152.056 135.418,152.464 136.181,152.605 136.823 C 152.746 137.465,153.028 138.094,153.231 138.219 C 153.434 138.345,153.600 139.314,153.600 140.374 C 153.600 142.290,154.745 143.223,156.600 142.820 C 156.820 142.772,156.864 142.869,156.699 143.035 C 156.533 143.201,156.639 143.711,156.935 144.168 C 157.231 144.626,157.587 145.450,157.725 146.000 C 157.863 146.550,158.509 147.353,159.159 147.784 C 159.924 148.290,160.431 149.037,160.591 149.895 C 160.728 150.625,160.966 151.146,161.120 151.052 C 161.274 150.958,161.443 151.617,161.496 152.515 C 161.599 154.256,162.061 154.784,163.492 154.794 C 164.108 154.798,164.463 155.110,164.636 155.800 C 164.774 156.350,165.002 156.800,165.143 156.800 C 165.285 156.800,165.436 157.459,165.480 158.264 C 165.525 159.070,165.765 159.855,166.014 160.009 C 166.264 160.163,166.467 160.449,166.466 160.645 C 166.465 160.840,166.809 161.322,167.232 161.716 C 167.719 162.169,168.000 162.251,168.000 161.939 C 168.000 161.669,168.254 161.795,168.565 162.219 C 168.875 162.644,169.052 163.116,168.958 163.268 C 168.864 163.420,168.970 163.658,169.193 163.796 C 169.417 163.934,169.600 164.537,169.600 165.135 C 169.600 165.733,169.962 166.532,170.405 166.911 C 171.350 167.721,171.770 167.805,171.347 167.100 C 171.143 166.760,171.263 166.776,171.723 167.149 C 172.095 167.451,172.400 167.844,172.400 168.023 C 172.400 168.202,172.606 168.855,172.859 169.474 C 173.347 170.674,173.424 171.082,173.532 173.050 C 173.598 174.257,175.128 175.140,176.600 174.820 C 176.820 174.772,176.864 174.869,176.699 175.035 C 176.533 175.201,176.639 175.711,176.935 176.168 C 177.231 176.626,177.587 177.450,177.725 178.000 C 177.863 178.550,178.509 179.353,179.159 179.784 C 179.924 180.290,180.431 181.037,180.591 181.895 C 180.728 182.625,180.966 183.146,181.120 183.052 C 181.274 182.958,181.443 183.617,181.496 184.515 C 181.599 186.256,182.061 186.784,183.492 186.794 C 184.108 186.798,184.463 187.110,184.636 187.800 C 184.774 188.350,185.002 188.800,185.143 188.800 C 185.285 188.800,185.436 189.459,185.480 190.264 C 185.525 191.070,185.795 191.877,186.080 192.058 C 186.366 192.239,186.420 192.394,186.200 192.402 C 185.980 192.409,186.458 192.997,187.262 193.708 C 188.616 194.905,189.666 197.207,189.444 198.493 C 189.160 200.139,187.932 201.600,186.833 201.600 C 185.850 201.600,185.658 201.784,185.480 202.900 C 185.365 203.615,185.194 204.470,185.098 204.800 C 185.003 205.130,184.791 205.882,184.626 206.471 C 184.462 207.060,184.063 207.644,183.739 207.768 C 183.413 207.893,183.278 208.203,183.436 208.459 C 183.594 208.715,183.552 208.818,183.343 208.688 C 182.628 208.246,181.971 209.064,181.486 211.002 C 180.985 212.996,180.809 213.134,177.962 213.757 C 176.966 213.975,176.937 214.060,177.229 215.892 C 177.619 218.335,176.739 220.350,174.909 221.200 C 173.730 221.747,173.325 222.610,173.549 224.090 C 173.574 224.249,172.965 225.008,172.197 225.777 C 171.429 226.545,170.800 227.370,170.800 227.610 C 170.800 227.851,170.620 227.936,170.400 227.800 C 170.180 227.664,170.000 227.629,170.000 227.722 C 170.000 230.769,168.778 233.093,166.999 233.427 C 165.899 233.633,165.645 233.885,165.475 234.937 C 165.363 235.632,165.194 236.470,165.098 236.800 C 165.003 237.130,164.791 237.882,164.626 238.471 C 164.462 239.060,164.063 239.644,163.739 239.768 C 163.413 239.893,163.278 240.203,163.436 240.459 C 163.594 240.715,163.552 240.818,163.343 240.688 C 162.628 240.246,161.971 241.064,161.486 243.002 C 160.985 244.996,160.809 245.134,157.962 245.757 C 156.968 245.975,156.937 246.063,157.219 247.892 C 157.598 250.343,156.880 252.144,155.106 253.191 C 154.102 253.783,153.653 254.423,153.291 255.776 C 152.989 256.906,152.436 257.820,151.805 258.234 C 151.252 258.596,150.800 259.152,150.800 259.470 C 150.800 259.787,150.632 259.943,150.426 259.816 C 150.220 259.689,149.930 260.443,149.782 261.492 C 149.430 263.991,148.688 265.103,147.098 265.513 C 145.884 265.826,145.786 265.983,145.589 267.924 L 145.378 270.000 155.675 270.000 C 167.272 270.000,166.693 270.164,166.731 266.867 C 166.756 264.705,167.680 263.244,169.218 262.936 C 169.868 262.806,170.414 262.498,170.431 262.250 C 170.478 261.558,170.722 260.352,171.043 259.224 C 171.488 257.664,171.497 257.628,171.550 257.200 C 171.578 256.980,171.881 256.800,172.224 256.800 C 172.567 256.800,172.736 256.620,172.600 256.399 C 172.463 256.179,172.813 255.823,173.376 255.609 C 174.043 255.356,174.410 254.903,174.430 254.310 C 174.490 252.478,174.809 251.632,175.859 250.528 C 176.448 249.908,176.784 249.653,176.604 249.962 C 176.383 250.340,176.427 250.430,176.738 250.238 C 176.992 250.081,177.200 249.771,177.200 249.548 C 177.200 249.325,177.448 248.895,177.752 248.591 C 178.055 248.288,178.431 247.176,178.587 246.120 C 178.914 243.909,179.733 242.800,181.038 242.800 C 181.541 242.800,182.092 242.575,182.262 242.300 C 182.595 241.760,182.628 241.517,182.732 238.800 C 182.810 236.761,184.165 234.800,185.495 234.800 C 186.152 234.800,186.343 234.449,186.554 232.861 C 186.696 231.795,186.944 230.790,187.106 230.628 C 187.268 230.466,187.423 230.168,187.450 229.967 C 187.478 229.765,187.523 229.420,187.550 229.200 C 187.578 228.980,187.881 228.800,188.224 228.800 C 188.567 228.800,188.736 228.620,188.600 228.399 C 188.463 228.179,188.813 227.823,189.376 227.609 C 189.939 227.395,190.413 226.900,190.430 226.510 C 190.553 223.567,191.488 222.589,194.330 222.430 C 194.700 222.409,194.840 221.830,194.794 220.500 C 194.632 215.773,195.209 214.800,198.173 214.800 C 200.099 214.800,201.600 216.184,201.600 217.962 C 201.600 218.637,202.368 219.092,202.900 218.732 C 203.221 218.515,204.782 219.706,204.588 220.020 C 204.458 220.229,204.543 220.400,204.776 220.400 C 205.009 220.400,205.179 220.535,205.153 220.700 C 205.127 220.865,205.141 221.090,205.186 221.200 C 205.230 221.310,205.353 221.937,205.459 222.593 C 205.565 223.248,205.836 223.899,206.060 224.037 C 206.285 224.176,206.408 224.394,206.334 224.522 C 206.260 224.650,206.605 225.132,207.100 225.593 C 207.678 226.131,208.006 226.247,208.017 225.916 C 208.049 224.938,209.566 228.202,209.583 229.284 C 209.599 230.277,211.310 232.400,212.096 232.400 C 212.263 232.400,212.400 232.658,212.400 232.974 C 212.400 233.290,212.608 234.055,212.863 234.674 C 213.117 235.293,213.392 236.250,213.475 236.800 C 213.724 238.464,213.885 238.677,215.078 238.916 C 216.694 239.239,217.523 241.148,217.308 244.050 L 217.141 246.300 218.966 246.574 C 220.758 246.843,220.803 246.886,221.396 248.924 C 221.821 250.380,222.351 251.234,223.172 251.784 C 223.921 252.286,224.432 253.045,224.591 253.895 C 224.728 254.625,225.009 255.118,225.216 254.990 C 225.422 254.863,225.509 254.993,225.409 255.279 C 224.941 256.620,225.816 258.553,227.034 258.869 C 228.516 259.253,229.573 261.231,229.358 263.217 C 228.946 267.033,228.944 268.249,229.353 268.777 C 229.694 269.217,229.682 269.282,229.300 269.053 C 228.988 268.866,228.800 268.980,228.800 269.355 C 228.800 269.879,230.523 269.959,242.043 269.972 C 252.603 269.984,255.203 269.885,254.871 269.486 C 254.643 269.211,254.488 268.276,254.527 267.409 C 254.594 265.921,254.522 265.817,253.255 265.558 C 251.375 265.173,250.817 264.462,250.537 262.096 C 250.332 260.367,250.021 259.768,248.578 258.320 C 247.373 257.112,246.816 256.189,246.707 255.219 C 246.576 254.055,246.352 253.787,245.278 253.508 C 243.751 253.113,242.983 251.997,242.638 249.673 C 242.421 248.208,240.400 245.042,240.400 246.166 C 240.400 247.292,238.792 244.817,238.572 243.354 C 238.347 241.852,238.088 241.476,236.771 240.736 C 235.925 240.260,235.326 239.720,235.440 239.535 C 235.554 239.351,235.504 238.975,235.330 238.700 C 234.926 238.065,234.910 237.966,234.850 235.787 C 234.813 234.439,234.621 233.919,234.100 233.756 C 233.715 233.636,232.930 233.286,232.356 232.979 C 231.782 232.672,231.227 232.506,231.123 232.611 C 231.019 232.715,230.903 232.575,230.866 232.300 C 230.476 229.401,230.266 228.852,229.460 228.633 C 228.282 228.312,227.247 226.760,226.991 224.928 C 226.598 222.121,226.394 221.600,225.692 221.597 C 224.782 221.594,223.036 220.361,222.864 219.600 C 222.790 219.270,222.610 218.362,222.464 217.582 C 222.183 216.069,221.067 214.479,219.784 213.761 C 219.293 213.487,218.862 212.622,218.631 211.452 C 218.342 209.983,218.062 209.530,217.331 209.347 C 216.819 209.218,216.400 208.923,216.400 208.690 C 216.400 208.457,216.283 208.384,216.139 208.527 C 215.591 209.076,214.800 206.606,214.800 204.342 C 214.800 202.588,214.645 201.926,214.200 201.787 C 213.870 201.684,213.328 201.515,212.996 201.411 C 212.663 201.307,212.258 201.193,212.096 201.157 C 211.407 201.006,210.752 199.487,210.777 198.097 C 210.805 196.540,211.024 194.673,211.199 194.500 C 211.315 194.385,211.477 193.785,211.550 193.200 C 211.578 192.980,211.881 192.800,212.224 192.800 C 212.567 192.800,212.736 192.620,212.600 192.399 C 212.463 192.179,212.813 191.823,213.376 191.609 C 214.069 191.345,214.400 190.920,214.400 190.290 C 214.400 188.207,215.341 187.182,218.100 186.259 C 218.628 186.083,218.800 185.584,218.800 184.231 C 218.800 181.851,220.210 178.743,220.952 179.486 C 221.089 179.622,221.200 179.523,221.200 179.267 C 221.200 179.010,221.470 178.800,221.800 178.800 C 222.130 178.800,222.413 178.485,222.430 178.100 C 222.498 176.503,222.857 175.400,223.411 175.090 C 223.735 174.909,224.000 174.499,224.000 174.180 C 224.000 173.861,224.287 173.600,224.637 173.600 C 224.988 173.600,225.373 173.225,225.493 172.766 C 225.642 172.196,225.806 172.086,226.011 172.418 C 226.183 172.696,226.427 172.058,226.583 170.920 C 226.888 168.703,228.236 166.800,229.500 166.800 C 230.305 166.800,230.776 165.861,230.801 164.200 C 230.808 163.760,231.295 162.950,231.882 162.400 C 232.470 161.850,232.799 161.653,232.614 161.962 C 232.385 162.343,232.425 162.432,232.738 162.238 C 232.992 162.081,233.200 161.771,233.200 161.548 C 233.200 161.325,233.470 160.873,233.800 160.543 C 234.130 160.213,234.400 159.362,234.400 158.651 C 234.400 156.194,235.218 155.223,238.100 154.259 C 238.628 154.083,238.800 153.584,238.800 152.231 C 238.800 149.851,240.210 146.743,240.952 147.486 C 241.089 147.622,241.200 147.523,241.200 147.267 C 241.200 147.010,241.470 146.800,241.800 146.800 C 242.130 146.800,242.413 146.485,242.430 146.100 C 242.498 144.503,242.857 143.400,243.411 143.090 C 243.735 142.909,244.000 142.499,244.000 142.180 C 244.000 141.861,244.287 141.600,244.637 141.600 C 244.988 141.600,245.373 141.225,245.493 140.766 C 245.642 140.196,245.806 140.086,246.011 140.418 C 246.183 140.696,246.427 140.058,246.583 138.920 C 246.893 136.673,248.240 134.800,249.547 134.800 C 250.039 134.800,250.400 134.546,250.400 134.200 C 250.400 133.682,248.978 133.600,240.000 133.600 L 229.600 133.600 229.540 134.600 C 229.507 135.150,229.466 135.825,229.448 136.100 C 229.430 136.375,228.827 137.164,228.108 137.854 C 227.389 138.544,226.800 139.319,226.800 139.578 C 226.800 139.836,226.620 139.936,226.400 139.800 C 226.180 139.664,226.000 139.629,226.000 139.722 C 226.000 142.797,224.778 145.093,222.960 145.434 C 221.832 145.645,221.595 145.869,221.571 146.745 C 221.463 150.775,220.678 152.614,218.758 153.338 C 217.700 153.738,217.323 154.598,217.549 156.090 C 217.574 156.249,216.965 157.008,216.197 157.777 C 215.429 158.545,214.800 159.370,214.800 159.610 C 214.800 159.851,214.629 159.942,214.420 159.812 C 214.211 159.683,213.933 160.258,213.802 161.089 C 213.183 165.013,213.147 165.057,209.912 165.770 C 208.915 165.989,208.858 166.101,209.235 167.092 C 210.251 169.764,208.793 173.600,206.760 173.600 C 205.797 173.600,205.600 173.766,205.600 174.576 C 205.600 175.113,205.417 175.666,205.193 175.804 C 204.970 175.942,204.882 176.208,204.997 176.395 C 205.113 176.582,204.923 177.020,204.575 177.368 C 204.227 177.715,204.060 178.000,204.202 178.000 C 204.345 178.000,203.898 178.564,203.209 179.252 L 201.957 180.505 201.163 179.652 C 200.726 179.184,200.506 178.800,200.673 178.800 C 201.410 178.800,199.224 177.637,197.732 177.236 C 195.525 176.641,194.800 175.446,194.800 172.402 C 194.800 170.440,194.666 169.933,194.100 169.756 C 193.715 169.636,192.930 169.286,192.356 168.979 C 191.782 168.672,191.227 168.506,191.123 168.611 C 191.019 168.715,190.903 168.575,190.865 168.300 C 190.330 164.378,190.154 163.928,188.500 162.253 C 187.358 161.097,186.749 160.100,186.647 159.218 C 186.496 157.925,185.882 157.218,184.900 157.206 C 184.625 157.203,184.400 156.990,184.400 156.733 C 184.400 156.477,184.283 156.384,184.139 156.527 C 183.754 156.912,182.801 154.873,182.796 153.654 C 182.784 150.922,182.332 149.687,181.254 149.446 C 179.464 149.045,178.788 148.220,178.541 146.134 C 178.309 144.175,177.352 142.664,175.771 141.758 C 175.311 141.494,174.838 140.566,174.599 139.452 C 174.268 137.918,173.930 137.427,172.684 136.675 C 171.852 136.173,171.280 135.653,171.413 135.520 C 171.546 135.387,171.420 134.900,171.131 134.439 C 170.591 133.573,149.600 133.058,149.600 133.911 M161.100 269.499 C 158.295 269.568,153.705 269.568,150.900 269.499 C 148.095 269.430,150.390 269.374,156.000 269.374 C 161.610 269.374,163.905 269.430,161.100 269.499 M248.100 269.499 C 244.745 269.566,239.255 269.566,235.900 269.499 C 232.545 269.432,235.290 269.378,242.000 269.378 C 248.710 269.378,251.455 269.432,248.100 269.499 M100.816 344.981 C 99.753 346.261,101.314 348.228,102.700 347.355 C 104.085 346.483,103.592 344.400,102.000 344.400 C 101.614 344.400,101.081 344.661,100.816 344.981 M284.816 352.981 C 283.753 354.261,285.314 356.228,286.700 355.355 C 288.085 354.483,287.592 352.400,286.000 352.400 C 285.614 352.400,285.081 352.661,284.816 352.981 M120.816 356.981 C 119.753 358.261,121.314 360.228,122.700 359.355 C 124.085 358.483,123.592 356.400,122.000 356.400 C 121.614 356.400,121.081 356.661,120.816 356.981 " stroke="none" fill="#64fbdb" fill-rule="evenodd"></path><path id="path1" d="M142.640 126.617 C 142.137 127.120,142.039 128.206,142.112 132.515 L 142.200 137.797 144.243 137.927 C 146.727 138.084,147.594 137.401,147.613 135.271 C 147.627 133.658,148.138 132.777,149.474 132.065 C 150.700 131.412,172.106 131.415,173.326 132.068 C 173.807 132.325,175.080 132.606,176.156 132.692 L 178.111 132.849 177.907 129.996 C 177.795 128.427,177.491 126.931,177.232 126.671 C 176.427 125.867,143.442 125.815,142.640 126.617 M226.493 126.510 C 226.280 126.780,226.093 127.603,226.078 128.341 C 226.045 129.996,226.164 129.897,224.000 130.076 L 222.200 130.224 222.068 133.112 L 221.937 136.000 224.080 136.000 C 226.365 136.000,226.945 135.619,227.895 133.492 C 228.666 131.766,229.758 131.600,240.371 131.600 L 250.291 131.600 251.345 132.655 C 252.991 134.300,252.896 137.401,251.191 137.742 C 250.525 137.875,249.915 138.212,249.834 138.492 C 248.597 142.778,248.479 143.018,247.358 143.552 C 244.513 144.907,243.319 148.378,245.256 149.658 C 246.060 150.189,249.790 149.897,249.850 149.298 C 249.878 149.024,249.923 148.186,249.950 147.435 C 249.996 146.167,250.113 146.051,251.598 145.800 C 253.651 145.453,253.769 145.226,253.872 141.400 L 253.959 138.200 255.474 138.070 C 257.907 137.862,258.000 137.645,258.000 132.180 C 258.000 128.271,257.873 127.130,257.381 126.638 C 256.558 125.815,227.140 125.693,226.493 126.510 M177.229 134.771 C 175.084 136.916,176.804 140.378,179.962 140.271 L 181.915 140.204 181.857 137.210 L 181.800 134.216 179.929 134.079 C 178.451 133.971,177.884 134.116,177.229 134.771 M218.481 138.557 C 218.304 138.801,218.106 139.630,218.041 140.400 C 217.897 142.117,217.970 142.045,216.341 142.078 C 214.302 142.119,214.100 142.489,214.035 146.289 C 213.966 150.362,214.211 149.902,212.001 150.108 L 210.210 150.275 210.069 153.338 L 209.929 156.400 212.007 156.400 C 214.235 156.400,215.721 155.248,215.862 153.411 C 216.113 150.153,216.113 150.155,217.185 150.313 C 218.124 150.450,218.277 150.261,218.954 148.132 C 220.252 144.044,220.401 143.775,221.614 143.317 C 224.221 142.333,223.337 138.229,220.502 138.157 C 219.568 138.133,218.659 138.313,218.481 138.557 M146.033 141.900 C 146.108 145.540,146.379 146.000,148.449 146.000 C 149.989 146.000,150.353 146.646,150.060 148.862 C 149.972 149.532,151.300 150.037,152.853 149.924 C 156.120 149.687,156.504 145.853,153.409 144.368 C 152.632 143.995,152.077 143.319,151.793 142.400 C 150.777 139.102,150.468 138.800,148.121 138.800 L 145.970 138.800 146.033 141.900 M181.564 143.061 C 180.701 145.267,180.888 146.488,182.193 147.173 C 183.659 147.943,184.371 148.771,184.387 149.726 C 184.418 151.484,186.079 154.400,187.049 154.400 C 187.572 154.400,188.011 154.445,188.025 154.500 C 188.039 154.555,188.147 155.500,188.266 156.600 C 188.570 159.421,189.623 160.473,191.987 160.318 L 193.800 160.200 193.800 157.201 C 193.800 154.819,193.676 154.193,193.200 154.161 C 192.870 154.140,192.015 154.094,191.300 154.061 L 190.000 154.000 190.000 150.449 C 190.000 146.856,189.620 145.848,188.330 146.023 C 186.317 146.296,186.000 146.048,186.000 144.200 C 186.000 143.210,185.955 142.389,185.900 142.375 C 183.424 141.757,181.985 141.984,181.564 143.061 M241.535 151.680 C 241.215 152.186,240.634 153.455,240.243 154.500 C 239.802 155.681,239.291 156.400,238.893 156.400 C 237.528 156.400,236.471 157.940,236.808 159.436 C 237.295 161.595,237.869 162.046,239.961 161.913 C 241.892 161.790,241.864 161.827,241.954 159.300 C 241.998 158.065,242.077 158.000,243.551 158.000 C 245.706 158.000,246.058 157.396,245.918 153.937 L 245.800 151.000 243.959 150.880 C 242.402 150.779,242.028 150.903,241.535 151.680 M154.030 154.146 C 154.125 157.543,154.412 158.000,156.449 158.000 L 158.000 158.000 158.020 159.700 C 158.082 164.954,158.272 165.441,160.402 165.800 C 161.887 166.051,162.004 166.167,162.050 167.435 C 162.078 168.186,162.123 169.025,162.150 169.300 C 162.222 170.024,166.536 170.200,167.115 169.503 C 168.592 167.723,167.626 164.756,165.246 163.761 C 163.454 163.013,163.281 162.718,162.953 159.843 C 162.710 157.717,162.571 157.444,161.526 157.050 C 160.788 156.771,160.294 156.248,160.163 155.606 C 159.882 154.223,158.713 151.934,158.212 151.785 C 157.985 151.718,156.934 151.580,155.875 151.478 L 153.949 151.293 154.030 154.146 M206.350 158.275 C 206.181 158.698,206.094 159.362,206.050 160.565 C 206.004 161.833,205.887 161.949,204.402 162.200 C 202.353 162.546,202.279 162.693,202.020 166.929 C 202.009 167.109,201.707 166.964,201.349 166.607 C 200.992 166.249,200.317 165.986,199.849 166.022 C 198.160 166.154,198.000 166.018,198.000 164.449 C 198.000 160.886,193.613 160.996,192.805 164.579 C 192.469 166.068,193.291 167.586,194.447 167.613 C 195.438 167.636,196.289 168.583,196.596 170.006 C 197.285 173.191,197.978 174.283,199.739 174.955 C 202.174 175.885,202.630 175.778,203.373 174.100 C 204.458 171.652,204.625 171.424,205.737 170.878 C 206.646 170.432,206.809 170.084,206.861 168.478 C 206.894 167.445,206.964 166.420,207.015 166.200 C 207.066 165.980,207.128 165.566,207.154 165.280 C 207.179 164.993,207.875 164.480,208.700 164.140 C 211.722 162.892,212.249 161.669,210.793 159.282 C 210.084 158.119,206.717 157.356,206.350 158.275 M234.504 163.907 C 233.190 164.123,232.400 165.525,232.400 167.639 C 232.400 169.390,232.329 169.514,231.191 169.742 C 230.525 169.875,229.915 170.212,229.834 170.492 C 228.597 174.778,228.479 175.018,227.358 175.552 C 224.513 176.907,223.319 180.378,225.256 181.658 C 226.060 182.189,229.790 181.897,229.850 181.298 C 229.878 181.024,229.923 180.186,229.950 179.435 C 229.996 178.167,230.113 178.051,231.598 177.800 C 233.651 177.453,233.769 177.226,233.872 173.400 L 233.959 170.200 235.474 170.070 C 237.688 169.881,238.000 169.446,238.000 166.551 C 238.000 164.400,237.890 163.995,237.300 163.969 C 236.915 163.953,236.330 163.899,236.000 163.849 C 235.670 163.800,234.997 163.826,234.504 163.907 M166.078 173.832 C 166.040 177.245,166.502 178.000,168.629 178.000 C 169.971 178.000,170.341 178.739,170.060 180.862 C 169.972 181.532,171.300 182.037,172.853 181.924 C 176.143 181.685,176.501 177.293,173.299 176.436 C 172.445 176.208,172.044 175.683,171.408 173.959 C 170.280 170.907,170.213 170.844,168.046 170.861 L 166.112 170.876 166.078 173.832 M221.199 184.478 C 220.769 185.425,220.414 186.479,220.409 186.820 C 220.397 187.633,219.608 188.400,218.782 188.400 C 217.831 188.400,216.580 189.942,216.719 190.943 C 217.081 193.549,217.587 194.044,219.756 193.919 C 221.914 193.793,221.863 193.853,221.954 191.300 C 221.997 190.095,222.100 190.000,223.371 190.000 C 225.548 190.000,226.052 189.178,225.917 185.855 L 225.800 183.000 223.890 182.878 C 221.990 182.756,221.977 182.764,221.199 184.478 M174.030 186.146 C 174.125 189.543,174.412 190.000,176.449 190.000 L 178.000 190.000 178.020 191.700 C 178.076 196.437,178.392 197.600,179.624 197.600 C 180.051 197.600,180.400 197.774,180.400 197.987 C 180.400 198.201,180.128 198.270,179.795 198.143 C 178.560 197.669,178.057 198.730,178.079 201.761 L 178.100 204.672 180.102 204.598 C 182.322 204.515,183.331 203.647,183.772 201.439 C 184.039 200.106,185.061 198.800,185.838 198.800 C 187.468 198.800,186.659 197.032,184.865 196.673 C 183.751 196.450,182.800 193.571,182.800 190.419 C 182.800 189.797,182.436 189.393,181.584 189.072 C 180.791 188.772,180.297 188.262,180.163 187.606 C 179.882 186.223,178.713 183.934,178.212 183.785 C 177.985 183.718,176.934 183.580,175.875 183.478 L 173.949 183.293 174.030 186.146 M217.509 195.424 C 217.385 195.548,216.590 195.659,215.742 195.671 C 213.061 195.708,211.719 199.559,214.368 199.613 C 215.433 199.634,216.280 200.543,216.596 202.006 C 217.225 204.914,218.038 206.400,219.001 206.400 C 220.034 206.400,220.400 207.074,220.400 208.979 C 220.400 211.190,221.654 212.349,223.962 212.271 L 225.915 212.204 225.857 209.216 L 225.800 206.227 224.000 206.077 C 221.722 205.887,221.874 206.157,221.963 202.458 C 222.048 198.939,221.462 197.780,219.763 198.105 C 218.480 198.350,218.040 197.962,217.928 196.484 C 217.821 195.078,217.830 195.103,217.509 195.424 M174.350 206.271 C 174.179 206.710,174.094 207.363,174.050 208.565 C 174.004 209.833,173.887 209.949,172.402 210.200 C 170.381 210.541,170.333 210.632,170.108 214.547 C 169.886 218.395,170.175 217.906,168.001 218.108 L 166.210 218.275 166.069 221.338 L 165.929 224.400 168.007 224.400 C 170.235 224.400,171.721 223.248,171.862 221.411 C 172.115 218.128,172.104 218.154,173.236 218.320 C 174.266 218.471,174.326 218.382,174.586 216.339 C 174.999 213.093,175.161 212.775,176.739 212.124 C 179.634 210.928,180.238 209.593,178.980 207.161 C 178.433 206.104,174.695 205.385,174.350 206.271 M225.831 214.473 C 224.980 217.201,225.177 218.380,226.582 218.967 C 227.571 219.380,228.039 219.872,228.207 220.674 C 228.636 222.731,229.682 224.398,230.563 224.431 C 231.023 224.447,231.734 224.524,232.143 224.602 C 233.708 224.897,234.000 224.426,234.000 221.606 C 234.000 218.878,233.526 217.861,232.330 218.023 C 230.317 218.296,230.000 218.048,230.000 216.200 C 230.000 215.210,229.955 214.387,229.900 214.372 C 228.520 213.983,225.964 214.047,225.831 214.473 M197.403 221.340 C 197.104 222.033,196.763 222.910,196.646 223.288 C 196.530 223.667,195.932 224.082,195.317 224.212 C 192.633 224.778,192.001 225.754,192.809 228.089 L 193.401 229.800 195.601 229.800 C 197.067 229.800,197.817 229.633,197.850 229.300 C 198.026 227.543,198.089 227.432,198.357 228.400 C 198.573 229.175,199.014 229.480,200.318 229.757 C 201.874 230.087,202.004 230.214,202.050 231.457 C 202.078 232.196,202.123 233.024,202.150 233.298 C 202.181 233.606,202.993 233.846,204.274 233.928 C 208.304 234.185,208.925 228.749,204.978 227.759 C 203.698 227.438,203.280 226.623,202.949 223.807 C 202.802 222.554,202.483 221.484,202.241 221.429 C 201.998 221.374,200.933 221.048,199.874 220.705 L 197.949 220.081 197.403 221.340 M162.481 226.557 C 162.304 226.801,162.106 227.630,162.041 228.400 C 161.897 230.117,161.970 230.045,160.341 230.078 C 158.307 230.119,158.056 230.529,158.079 233.761 L 158.100 236.672 160.102 236.598 C 162.095 236.524,163.566 235.479,163.591 234.119 C 163.612 233.000,164.539 231.723,165.628 231.312 C 168.223 230.332,167.326 226.229,164.502 226.157 C 163.568 226.133,162.659 226.313,162.481 226.557 M233.442 226.862 C 232.225 228.599,232.870 231.574,234.471 231.613 C 235.306 231.633,236.400 232.624,236.400 233.360 C 236.400 234.996,237.986 237.198,239.208 237.260 C 241.235 237.362,241.393 237.391,241.626 237.704 C 241.750 237.871,241.894 236.497,241.945 234.651 C 242.045 230.999,241.544 229.890,239.849 230.022 C 238.160 230.154,238.000 230.018,238.000 228.449 C 238.000 226.006,234.817 224.898,233.442 226.862 M191.575 231.491 C 189.595 231.650,188.406 232.910,188.395 234.862 C 188.384 236.618,187.928 237.531,186.936 237.780 C 185.905 238.039,184.426 240.632,184.409 242.211 C 184.397 243.285,183.309 244.800,182.549 244.800 C 179.911 244.800,180.673 249.703,183.345 249.926 C 185.304 250.089,186.000 249.466,186.000 247.551 C 186.000 246.022,186.021 246.000,187.520 246.000 C 189.735 246.000,190.000 245.524,190.000 241.542 L 190.000 238.044 191.900 237.922 L 193.800 237.800 193.858 234.500 C 193.890 232.685,193.800 231.232,193.658 231.272 C 193.516 231.312,192.579 231.410,191.575 231.491 M206.082 238.200 C 206.068 241.500,206.380 242.000,208.449 242.000 L 210.000 242.000 210.020 243.700 C 210.082 248.954,210.272 249.441,212.402 249.800 C 213.887 250.051,214.004 250.167,214.050 251.435 C 214.078 252.186,214.123 253.024,214.150 253.298 C 214.273 254.526,218.301 254.152,218.974 252.850 C 220.152 250.573,219.349 248.400,217.330 248.400 C 216.069 248.400,215.210 247.115,214.723 244.498 C 214.329 242.377,214.129 242.026,213.038 241.545 C 211.958 241.070,211.790 240.784,211.724 239.308 C 211.610 236.737,210.625 235.699,208.147 235.535 L 206.093 235.400 206.082 238.200 M154.350 238.271 C 154.179 238.710,154.094 239.363,154.050 240.565 C 154.004 241.833,153.887 241.949,152.402 242.200 C 150.381 242.541,150.333 242.632,150.108 246.547 C 149.887 250.366,150.117 249.897,148.400 250.041 C 146.341 250.214,146.129 250.527,146.042 253.527 L 145.962 256.257 148.081 256.295 C 150.628 256.340,151.657 255.316,151.992 252.402 C 152.176 250.810,152.324 250.586,153.266 250.477 C 154.227 250.366,154.357 250.150,154.595 248.277 C 154.997 245.100,155.166 244.773,156.739 244.124 C 159.634 242.928,160.238 241.593,158.980 239.161 C 158.433 238.104,154.695 237.385,154.350 238.271 M241.229 238.771 C 239.453 240.547,240.535 243.685,243.225 244.557 C 244.488 244.967,244.613 245.160,244.896 247.128 C 245.276 249.771,245.777 250.735,247.018 251.207 C 247.741 251.482,248.051 251.977,248.240 253.162 C 248.580 255.289,249.747 256.286,252.100 256.463 L 254.000 256.606 254.000 253.752 C 254.000 251.195,253.300 249.350,252.539 249.900 C 252.462 249.955,251.860 250.000,251.200 250.000 L 250.000 250.000 249.960 247.300 C 249.900 243.213,249.653 242.661,247.702 242.247 C 246.069 241.901,246.037 241.862,245.920 240.053 L 245.800 238.211 243.929 238.076 C 242.453 237.970,241.883 238.117,241.229 238.771 M177.270 252.926 C 175.261 255.064,176.740 258.118,179.693 257.931 L 181.800 257.797 181.867 254.898 L 181.935 252.000 180.037 252.000 C 178.571 252.000,177.942 252.210,177.270 252.926 M218.026 258.046 C 218.125 261.547,218.403 262.000,220.449 262.000 L 222.000 262.000 222.020 263.700 C 222.084 269.069,222.256 269.469,224.654 269.829 C 226.805 270.152,227.199 269.779,226.971 267.638 C 226.367 261.983,226.429 262.186,225.181 261.715 C 224.165 261.332,224.000 261.062,224.000 259.782 C 224.000 257.357,222.655 255.600,220.800 255.600 C 219.956 255.600,218.968 255.486,218.604 255.346 C 218.022 255.123,217.953 255.444,218.026 258.046 M142.459 258.583 C 142.294 258.812,142.106 259.630,142.041 260.400 C 141.897 262.117,141.970 262.045,140.341 262.078 C 138.299 262.119,138.076 262.506,138.076 266.000 C 138.076 269.808,138.315 270.084,141.466 269.921 L 143.800 269.800 143.705 268.051 C 143.591 265.979,144.596 263.600,145.584 263.600 C 147.549 263.600,148.016 259.907,146.238 258.431 C 145.575 257.882,142.887 257.990,142.459 258.583 M253.630 258.564 C 252.091 260.419,252.737 263.600,254.653 263.600 C 255.654 263.600,256.400 265.345,256.400 267.689 L 256.400 270.000 258.720 270.000 C 261.743 270.000,262.000 269.684,262.000 265.969 C 262.000 262.869,261.571 261.855,260.330 262.023 C 258.388 262.286,258.000 262.024,258.000 260.449 C 258.000 258.240,254.980 256.937,253.630 258.564 M175.240 259.530 C 173.312 259.714,172.430 260.938,172.413 263.450 C 172.401 265.404,172.344 265.511,171.200 265.740 C 170.066 265.967,170.000 266.086,170.000 267.905 C 170.000 269.816,171.078 270.768,171.842 269.532 C 172.017 269.249,172.190 269.260,172.379 269.567 C 172.569 269.873,172.895 269.758,173.391 269.209 C 173.881 268.668,173.955 268.400,173.613 268.400 C 173.221 268.400,173.210 268.270,173.565 267.842 C 173.820 267.535,173.977 267.040,173.914 266.742 C 173.836 266.373,174.310 266.159,175.395 266.070 C 177.745 265.879,178.000 265.498,178.000 262.176 C 178.000 259.627,177.910 259.259,177.300 259.325 C 176.915 259.366,175.988 259.458,175.240 259.530 M312.816 336.981 C 311.753 338.261,313.314 340.228,314.700 339.355 C 316.085 338.483,315.592 336.400,314.000 336.400 C 313.614 336.400,313.081 336.661,312.816 336.981 M188.623 397.289 C 187.329 399.136,187.768 400.000,190.000 400.000 C 191.815 400.000,192.000 399.916,192.000 399.089 C 192.000 397.850,190.921 396.400,190.000 396.400 C 189.585 396.400,188.965 396.800,188.623 397.289 " stroke="none" fill="#54ccb4" fill-rule="evenodd"></path><path id="path2" d="M149.400 132.083 C 148.113 132.821,147.626 133.699,147.613 135.304 C 147.604 136.301,147.331 137.039,146.800 137.493 C 145.566 138.550,145.822 138.800,148.136 138.800 C 150.466 138.800,150.778 139.107,151.793 142.400 C 152.077 143.319,152.632 143.995,153.409 144.368 C 155.840 145.534,156.014 146.347,154.517 149.514 C 153.751 151.135,153.933 151.329,156.468 151.591 C 158.602 151.812,159.644 152.942,160.170 155.606 C 160.297 156.251,160.784 156.770,161.526 157.050 C 162.571 157.444,162.710 157.717,162.953 159.843 C 163.281 162.718,163.454 163.013,165.246 163.761 C 167.878 164.861,168.682 168.076,166.733 169.710 C 165.629 170.636,165.969 170.910,168.170 170.866 C 170.192 170.825,170.282 170.912,171.408 173.959 C 172.044 175.683,172.445 176.208,173.299 176.436 C 175.718 177.083,176.019 178.338,174.517 181.514 C 173.751 183.135,173.933 183.329,176.468 183.591 C 178.602 183.812,179.644 184.942,180.170 187.606 C 180.300 188.266,180.787 188.771,181.584 189.072 C 182.436 189.393,182.800 189.797,182.800 190.419 C 182.800 193.571,183.751 196.450,184.865 196.673 C 186.659 197.032,187.468 198.800,185.838 198.800 C 185.061 198.800,184.039 200.106,183.772 201.439 C 183.267 203.963,180.249 205.666,178.584 204.366 C 177.842 203.787,178.010 205.597,178.821 206.928 C 180.319 209.383,179.712 210.896,176.739 212.124 C 175.161 212.775,174.999 213.093,174.586 216.339 C 174.326 218.382,174.266 218.471,173.236 218.320 C 172.104 218.154,172.115 218.128,171.862 221.411 C 171.724 223.210,170.230 224.400,168.109 224.400 C 166.620 224.400,166.133 224.548,166.133 225.000 C 166.133 225.655,166.626 225.805,166.967 225.254 C 167.085 225.063,167.637 224.994,168.194 225.101 C 170.237 225.492,172.800 223.359,172.800 221.268 C 172.800 221.042,173.430 220.189,174.200 219.373 C 175.433 218.065,175.600 217.638,175.600 215.793 C 175.600 213.600,175.913 213.101,177.600 212.603 C 180.234 211.826,181.790 207.089,179.600 206.516 C 178.203 206.151,178.737 205.600,180.487 205.600 C 182.378 205.600,183.879 204.306,184.273 202.336 C 184.392 201.742,185.182 200.706,186.044 200.013 C 186.900 199.325,187.600 198.484,187.600 198.143 C 187.600 197.245,186.046 195.200,185.363 195.200 C 184.649 195.200,184.018 193.630,183.778 191.256 C 183.631 189.808,183.299 189.199,181.999 187.999 C 181.119 187.187,180.400 186.197,180.400 185.799 C 180.400 183.950,178.428 182.321,176.364 182.465 L 174.423 182.600 175.411 181.684 C 177.280 179.952,176.654 177.202,174.056 175.739 C 173.042 175.168,172.492 174.369,171.635 172.224 C 170.962 170.541,170.205 169.305,169.712 169.085 C 169.134 168.827,168.826 168.195,168.649 166.904 C 168.390 165.018,166.644 162.800,165.418 162.800 C 164.601 162.800,164.009 161.545,163.786 159.341 C 163.630 157.797,163.322 157.220,161.999 155.999 C 161.119 155.187,160.400 154.197,160.400 153.799 C 160.400 151.950,158.428 150.321,156.364 150.465 L 154.423 150.600 155.411 149.684 C 157.221 148.007,156.063 143.600,153.813 143.600 C 153.550 143.600,153.144 143.195,152.910 142.700 C 152.675 142.205,152.022 140.810,151.458 139.600 C 150.894 138.390,150.088 137.188,149.668 136.929 C 148.638 136.294,148.314 134.425,149.038 133.300 C 149.617 132.403,149.651 132.400,160.566 132.400 L 171.513 132.400 173.136 133.700 C 174.029 134.415,174.768 135.225,174.779 135.500 C 174.791 135.775,174.980 136.000,175.200 136.000 C 175.420 136.000,175.579 136.135,175.553 136.300 C 175.146 138.877,176.991 141.077,179.500 141.006 C 180.435 140.980,181.200 141.103,181.200 141.279 C 181.200 141.456,181.380 141.600,181.600 141.600 C 182.083 141.600,181.953 140.710,181.415 140.324 C 181.203 140.172,180.371 140.139,179.566 140.252 C 176.874 140.629,175.242 136.758,177.247 134.753 C 177.873 134.127,177.966 133.826,177.602 133.601 C 177.222 133.366,177.234 133.247,177.655 133.080 C 177.955 132.961,177.570 132.818,176.800 132.763 C 176.030 132.708,175.130 132.639,174.800 132.609 C 174.470 132.579,173.807 132.340,173.326 132.077 C 172.125 131.421,150.546 131.426,149.400 132.083 M229.297 132.014 C 228.800 132.213,228.170 132.877,227.897 133.488 C 226.948 135.612,226.363 136.000,224.111 136.000 C 222.203 136.000,222.000 136.084,222.000 136.880 C 222.000 137.501,222.125 137.635,222.425 137.335 C 222.658 137.102,223.556 136.992,224.419 137.092 C 226.155 137.293,227.517 136.252,228.881 133.683 L 229.563 132.400 239.919 132.400 C 252.414 132.400,253.990 133.097,249.914 136.820 C 248.982 137.671,248.667 138.373,248.462 140.053 C 248.213 142.091,248.117 142.238,246.562 142.941 C 244.811 143.733,243.600 145.336,243.600 146.862 C 243.600 147.386,242.938 148.528,242.100 149.450 C 241.275 150.357,240.368 151.862,240.084 152.794 C 239.599 154.387,238.784 155.600,238.198 155.600 C 237.623 155.600,235.612 157.973,235.767 158.469 C 235.858 158.761,236.040 159.490,236.171 160.088 C 236.302 160.687,236.812 161.392,237.305 161.654 C 238.111 162.083,238.146 162.066,237.660 161.477 C 236.045 159.518,236.802 156.400,238.893 156.400 C 239.291 156.400,239.802 155.681,240.243 154.500 C 241.533 151.047,241.883 150.714,244.069 150.866 C 246.051 151.003,246.683 150.422,245.358 149.680 C 243.285 148.520,244.455 144.935,247.358 143.552 C 248.479 143.018,248.597 142.778,249.834 138.492 C 249.915 138.212,250.525 137.875,251.191 137.742 C 252.896 137.401,252.991 134.300,251.345 132.655 L 250.291 131.600 240.245 131.625 C 234.720 131.639,229.794 131.814,229.297 132.014 M222.713 139.832 C 223.413 141.959,223.170 142.730,221.614 143.317 C 220.401 143.775,220.252 144.044,218.954 148.132 C 218.277 150.261,218.124 150.450,217.185 150.313 C 216.113 150.155,216.113 150.153,215.862 153.411 C 215.724 155.210,214.230 156.400,212.109 156.400 C 210.620 156.400,210.133 156.548,210.133 157.000 C 210.133 157.655,210.626 157.805,210.967 157.254 C 211.085 157.063,211.637 156.994,212.194 157.101 C 214.237 157.492,216.800 155.359,216.800 153.268 C 216.800 153.042,217.385 152.236,218.100 151.478 C 219.234 150.274,219.646 149.314,220.664 145.507 C 220.766 145.126,221.425 144.541,222.128 144.207 C 224.416 143.122,224.812 139.749,222.799 138.492 C 222.187 138.110,222.180 138.214,222.713 139.832 M181.232 142.561 C 179.624 144.499,179.870 146.807,181.813 148.008 C 182.937 148.703,183.334 149.339,184.009 151.523 C 184.462 152.990,185.264 154.643,185.791 155.195 C 186.318 155.748,187.109 157.043,187.549 158.074 C 188.497 160.295,189.802 161.265,191.669 161.140 C 192.418 161.089,193.211 161.160,193.432 161.296 C 193.653 161.433,193.857 161.242,193.885 160.872 C 193.927 160.314,193.619 160.222,192.068 160.332 C 189.639 160.503,188.574 159.458,188.266 156.600 C 188.147 155.500,188.039 154.555,188.025 154.500 C 188.011 154.445,187.572 154.400,187.049 154.400 C 186.079 154.400,184.418 151.484,184.387 149.726 C 184.370 148.748,183.630 147.892,182.289 147.299 C 180.795 146.638,180.606 145.947,181.336 143.807 C 181.991 141.882,181.974 141.668,181.232 142.561 M210.816 159.319 C 212.248 161.667,211.707 162.898,208.700 164.140 C 207.875 164.480,207.179 164.993,207.154 165.280 C 207.128 165.566,207.066 165.980,207.015 166.200 C 206.964 166.420,206.894 167.445,206.861 168.478 C 206.809 170.084,206.646 170.432,205.737 170.878 C 204.625 171.424,204.458 171.652,203.373 174.100 C 202.630 175.778,202.174 175.885,199.739 174.955 C 197.978 174.283,197.285 173.191,196.596 170.006 C 196.289 168.583,195.438 167.636,194.447 167.613 C 192.652 167.571,192.154 164.348,193.660 162.524 C 194.149 161.933,194.118 161.922,193.329 162.414 C 191.106 163.798,191.465 167.006,193.986 168.283 C 195.781 169.193,195.816 169.247,196.408 172.038 C 196.979 174.730,197.472 175.272,200.161 176.174 L 202.123 176.832 203.261 175.741 C 203.888 175.141,204.400 174.374,204.400 174.036 C 204.400 173.698,205.148 172.778,206.062 171.990 C 207.694 170.585,207.723 170.515,207.652 168.137 C 207.575 165.576,207.822 165.127,209.600 164.603 C 212.119 163.860,213.121 161.472,211.776 159.420 C 210.773 157.889,209.888 157.797,210.816 159.319 M233.654 163.341 C 233.184 163.551,232.330 164.730,231.754 165.961 C 231.179 167.192,230.264 168.564,229.721 169.008 C 228.981 169.615,228.668 170.364,228.467 172.008 C 228.213 174.097,228.123 174.235,226.562 174.941 C 224.804 175.736,223.600 177.336,223.600 178.878 C 223.600 179.415,223.004 180.465,222.241 181.275 C 221.413 182.152,220.629 183.582,220.237 184.932 C 219.768 186.546,219.353 187.224,218.712 187.428 C 216.988 187.975,215.583 189.811,215.773 191.269 C 215.868 192.001,215.958 192.797,215.973 193.039 C 215.988 193.280,216.405 193.673,216.900 193.912 C 217.696 194.296,217.593 194.350,216.000 194.386 C 211.949 194.475,210.727 198.932,214.321 200.510 C 215.729 201.128,215.825 201.291,216.407 204.032 C 216.764 205.713,217.222 206.644,218.063 207.393 C 218.703 207.963,219.334 208.969,219.466 209.629 C 219.876 211.682,221.525 213.062,223.500 213.006 C 224.435 212.980,225.200 213.103,225.200 213.279 C 225.200 213.456,225.380 213.600,225.600 213.600 C 226.083 213.600,225.953 212.710,225.415 212.324 C 225.203 212.172,224.371 212.139,223.566 212.252 C 221.776 212.502,220.400 211.080,220.400 208.979 C 220.400 207.074,220.034 206.400,219.001 206.400 C 218.038 206.400,217.225 204.914,216.596 202.006 C 216.280 200.543,215.433 199.634,214.368 199.613 C 214.020 199.606,213.503 199.167,213.220 198.638 C 212.352 197.015,213.686 195.628,216.023 195.725 C 218.013 195.807,218.436 195.162,217.517 193.446 C 216.131 190.855,216.724 188.753,218.957 188.340 C 219.789 188.186,219.951 187.930,221.069 185.000 L 221.832 183.000 223.917 183.000 C 226.036 183.000,226.673 182.416,225.358 181.680 C 223.285 180.520,224.455 176.935,227.358 175.552 C 228.479 175.018,228.597 174.778,229.834 170.492 C 229.915 170.212,230.525 169.875,231.191 169.742 C 232.333 169.513,232.400 169.395,232.400 167.594 C 232.400 164.803,233.302 163.859,235.938 163.893 C 237.709 163.916,238.943 163.319,237.500 163.137 C 235.864 162.931,234.400 163.008,233.654 163.341 M225.023 214.900 C 224.939 215.175,224.665 216.030,224.413 216.800 C 223.969 218.160,224.003 218.241,225.618 219.645 C 226.531 220.440,227.611 221.790,228.017 222.645 C 229.185 225.103,229.710 225.550,231.555 225.659 C 233.114 225.751,234.421 226.400,233.047 226.400 C 230.360 226.400,231.790 231.930,234.664 232.652 C 235.400 232.837,235.739 233.376,236.233 235.144 C 236.585 236.404,237.291 237.789,237.832 238.281 C 238.364 238.765,238.800 239.350,238.800 239.581 C 238.800 239.811,238.942 240.000,239.115 240.000 C 239.288 240.000,239.473 240.564,239.525 241.253 C 239.647 242.854,240.977 244.729,242.210 245.038 C 243.773 245.431,244.296 246.473,244.370 249.346 C 244.391 250.151,244.877 250.928,246.000 251.955 C 246.880 252.759,247.601 253.684,247.602 254.009 C 247.608 255.941,252.481 258.287,253.400 256.800 C 253.551 256.556,252.962 256.400,251.893 256.400 C 249.782 256.400,248.635 255.361,248.228 253.082 C 248.033 251.989,247.690 251.462,247.003 251.201 C 245.777 250.735,245.274 249.764,244.896 247.128 C 244.613 245.160,244.488 244.967,243.225 244.557 C 240.639 243.718,239.460 240.568,241.100 238.879 C 241.485 238.483,241.850 237.721,241.912 237.187 C 242.010 236.335,241.960 236.294,241.512 236.859 C 240.077 238.663,236.400 236.146,236.400 233.360 C 236.400 232.624,235.306 231.633,234.471 231.613 C 232.914 231.575,232.204 228.540,233.387 226.976 C 234.398 225.640,234.170 224.480,232.900 224.501 C 229.639 224.556,228.889 223.944,228.207 220.674 C 228.040 219.877,227.571 219.380,226.604 218.976 C 225.251 218.411,225.240 218.384,225.474 216.402 C 225.688 214.594,225.404 213.648,225.023 214.900 M197.505 217.511 C 197.176 217.890,196.801 219.150,196.671 220.311 C 196.420 222.555,195.732 223.600,194.503 223.600 C 192.088 223.600,190.766 227.603,192.582 229.418 L 193.564 230.400 191.858 230.400 C 189.562 230.400,188.139 231.727,187.454 234.505 C 187.305 235.112,186.671 236.065,186.046 236.622 C 185.269 237.314,184.688 238.454,184.209 240.223 C 183.656 242.264,183.243 242.993,182.254 243.670 C 180.619 244.790,179.596 246.073,179.925 246.589 C 180.070 246.815,180.205 247.090,180.226 247.200 C 180.480 248.508,180.971 249.580,181.390 249.741 C 181.791 249.895,181.768 249.505,181.289 248.006 C 180.626 245.932,181.070 244.800,182.549 244.800 C 183.309 244.800,184.397 243.285,184.409 242.211 C 184.426 240.632,185.905 238.039,186.936 237.780 C 187.928 237.531,188.384 236.618,188.395 234.862 C 188.406 232.928,189.621 231.601,191.386 231.594 C 193.986 231.584,194.190 231.235,193.064 228.713 C 191.975 226.273,192.623 224.400,194.558 224.400 C 195.617 224.400,196.800 223.644,196.800 222.966 C 196.800 222.633,197.064 221.849,197.387 221.225 L 197.974 220.090 199.887 220.710 C 200.939 221.051,201.998 221.374,202.241 221.429 C 202.483 221.484,202.802 222.554,202.949 223.807 C 203.280 226.623,203.698 227.438,204.978 227.759 C 207.407 228.368,208.235 230.754,206.821 233.072 C 205.510 235.223,205.819 235.818,208.177 235.690 C 210.613 235.557,211.602 236.565,211.724 239.308 C 211.790 240.784,211.958 241.070,213.038 241.545 C 214.129 242.026,214.329 242.377,214.723 244.498 C 215.218 247.158,216.070 248.400,217.400 248.400 C 219.530 248.400,220.152 250.708,218.713 253.268 C 217.656 255.150,218.020 255.584,220.667 255.594 C 222.663 255.601,224.000 257.281,224.000 259.782 C 224.000 261.062,224.165 261.332,225.181 261.715 C 226.432 262.187,226.872 263.828,226.943 268.281 C 226.958 269.211,227.090 269.778,227.236 269.541 C 227.414 269.254,227.573 269.292,227.711 269.655 C 227.825 269.955,227.860 269.660,227.787 269.000 C 227.715 268.340,227.643 266.510,227.628 264.932 C 227.601 262.195,227.537 262.006,226.216 260.759 C 225.454 260.041,224.715 258.902,224.572 258.227 C 224.024 255.635,222.538 254.313,220.345 254.465 L 218.385 254.600 219.393 253.867 C 221.590 252.267,220.181 247.600,217.500 247.600 C 216.371 247.600,215.600 246.199,215.600 244.149 C 215.600 242.374,215.429 241.983,214.000 240.496 C 213.120 239.580,212.400 238.550,212.400 238.207 C 212.400 236.384,210.345 234.400,208.458 234.400 C 206.682 234.400,206.651 234.380,207.511 233.777 C 209.515 232.374,208.461 228.420,205.715 227.041 C 204.424 226.392,203.229 223.724,203.808 222.786 C 204.124 222.276,201.857 220.000,201.033 220.000 C 200.688 220.000,199.887 219.285,199.254 218.411 C 198.186 216.937,198.060 216.872,197.505 217.511 M166.713 227.832 C 167.411 229.954,167.169 230.730,165.628 231.312 C 164.539 231.723,163.612 233.000,163.591 234.119 C 163.559 235.859,159.987 237.462,158.584 236.366 C 157.842 235.787,158.010 237.597,158.821 238.928 C 160.319 241.383,159.712 242.896,156.739 244.124 C 155.166 244.773,154.997 245.100,154.595 248.277 C 154.357 250.150,154.227 250.366,153.266 250.477 C 152.324 250.586,152.176 250.810,151.992 252.402 C 151.693 255.007,150.559 256.406,148.800 256.342 C 146.433 256.257,146.000 256.374,146.006 257.100 C 146.010 257.508,146.135 257.627,146.306 257.387 C 146.468 257.159,147.410 256.984,148.400 256.997 C 150.471 257.024,152.157 255.733,152.639 253.751 C 152.793 253.118,153.522 252.006,154.259 251.281 C 155.447 250.112,155.600 249.719,155.600 247.830 C 155.600 245.597,155.907 245.102,157.600 244.603 C 160.234 243.826,161.790 239.089,159.600 238.516 C 158.203 238.151,158.737 237.600,160.487 237.600 C 162.402 237.600,163.634 236.520,164.412 234.162 C 164.706 233.271,165.294 232.603,166.133 232.205 C 168.416 231.121,168.810 227.748,166.799 226.492 C 166.187 226.110,166.180 226.214,166.713 227.832 M177.749 251.299 C 175.616 252.251,174.943 255.779,176.582 257.418 L 177.564 258.400 175.587 258.400 C 173.644 258.400,171.600 260.252,171.600 262.012 C 171.600 262.871,170.364 264.800,169.813 264.800 C 169.040 264.800,168.789 265.304,168.566 267.297 C 168.461 268.234,168.305 269.203,168.219 269.450 C 168.132 269.702,168.489 269.900,169.032 269.900 C 169.924 269.900,170.000 269.747,170.000 267.940 C 170.000 266.082,170.063 265.967,171.200 265.740 C 172.344 265.511,172.401 265.404,172.413 263.450 C 172.431 260.730,173.253 259.754,175.733 259.507 C 178.180 259.262,178.245 259.159,177.246 257.095 C 175.673 253.846,176.717 252.000,180.126 252.000 C 181.359 252.000,182.000 251.829,181.999 251.500 C 181.997 250.901,178.962 250.757,177.749 251.299 M146.525 258.800 C 147.935 261.233,147.496 263.600,145.634 263.600 C 145.281 263.600,144.733 264.005,144.416 264.500 C 143.687 265.640,143.571 270.000,144.271 270.000 C 144.626 270.000,144.696 269.443,144.525 267.994 C 144.283 265.952,145.003 264.400,146.192 264.400 C 148.312 264.400,148.943 260.991,147.173 259.106 C 146.201 258.071,146.066 258.008,146.525 258.800 M253.143 258.525 C 251.070 260.103,251.559 263.129,254.100 264.441 C 255.580 265.206,255.600 265.249,255.600 267.608 C 255.600 268.936,255.778 270.000,256.000 270.000 C 256.221 270.000,256.400 268.963,256.400 267.689 C 256.400 265.345,255.654 263.600,254.653 263.600 C 252.751 263.600,252.089 260.421,253.609 258.589 C 254.201 257.876,254.027 257.852,253.143 258.525 " stroke="none" fill="#5ce4c4" fill-rule="evenodd"></path><path id="path3" d="M149.038 133.300 C 148.314 134.425,148.638 136.294,149.668 136.929 C 150.088 137.188,150.894 138.390,151.458 139.600 C 152.022 140.810,152.675 142.205,152.910 142.700 C 153.144 143.195,153.550 143.600,153.813 143.600 C 156.063 143.600,157.221 148.007,155.411 149.684 L 154.423 150.600 156.364 150.465 C 158.428 150.321,160.400 151.950,160.400 153.799 C 160.400 154.197,161.119 155.187,161.999 155.999 C 163.322 157.220,163.630 157.797,163.786 159.341 C 164.009 161.545,164.601 162.800,165.418 162.800 C 166.644 162.800,168.390 165.018,168.649 166.904 C 168.826 168.195,169.134 168.827,169.712 169.085 C 170.205 169.305,170.962 170.541,171.635 172.224 C 172.492 174.369,173.042 175.168,174.056 175.739 C 176.654 177.202,177.280 179.952,175.411 181.684 L 174.423 182.600 176.364 182.465 C 178.428 182.321,180.400 183.950,180.400 185.799 C 180.400 186.197,181.119 187.187,181.999 187.999 C 183.299 189.199,183.631 189.808,183.778 191.256 C 184.018 193.630,184.649 195.200,185.363 195.200 C 186.046 195.200,187.600 197.245,187.600 198.143 C 187.600 198.484,186.900 199.325,186.044 200.013 C 185.182 200.706,184.392 201.742,184.273 202.336 C 183.879 204.306,182.378 205.600,180.487 205.600 C 178.737 205.600,178.203 206.151,179.600 206.516 C 181.790 207.089,180.234 211.826,177.600 212.603 C 175.913 213.101,175.600 213.600,175.600 215.793 C 175.600 217.638,175.433 218.065,174.200 219.373 C 173.430 220.189,172.800 221.042,172.800 221.268 C 172.800 223.353,170.238 225.492,168.206 225.103 C 166.911 224.856,165.943 225.867,166.828 226.543 C 168.803 228.053,168.427 231.117,166.133 232.205 C 165.294 232.603,164.706 233.271,164.412 234.162 C 163.634 236.520,162.402 237.600,160.487 237.600 C 158.737 237.600,158.203 238.151,159.600 238.516 C 161.790 239.089,160.234 243.826,157.600 244.603 C 155.907 245.102,155.600 245.597,155.600 247.830 C 155.600 249.719,155.447 250.112,154.259 251.281 C 153.522 252.006,152.793 253.118,152.639 253.751 C 152.141 255.798,150.474 257.044,148.300 256.996 C 146.073 256.947,145.871 257.456,147.400 259.273 C 148.959 261.125,148.152 264.400,146.136 264.400 C 144.861 264.400,143.671 268.303,144.745 268.966 C 144.934 269.083,145.092 268.779,145.096 268.289 C 145.117 265.674,145.183 265.542,146.779 264.915 C 148.569 264.212,149.145 263.087,148.978 260.621 C 148.870 259.030,147.866 257.788,147.079 258.275 C 146.858 258.412,146.795 258.332,146.940 258.097 C 147.085 257.863,147.698 257.737,148.302 257.818 C 149.787 258.017,151.660 257.621,151.380 257.167 C 151.255 256.965,151.414 256.800,151.733 256.800 C 152.212 256.800,152.822 255.574,152.967 254.319 C 152.985 254.164,153.765 253.302,154.700 252.404 C 156.345 250.823,156.400 250.690,156.400 248.264 L 156.400 245.758 158.371 245.049 C 160.341 244.341,161.200 243.172,161.200 241.203 C 161.200 240.830,161.664 240.001,162.230 239.362 C 163.867 237.516,164.486 236.473,164.767 235.090 C 164.965 234.116,165.417 233.598,166.615 232.974 C 168.483 232.000,169.194 230.790,168.913 229.057 C 168.802 228.366,168.670 227.540,168.620 227.222 C 168.571 226.904,168.321 226.574,168.065 226.488 C 167.098 226.166,167.652 225.711,168.843 225.850 C 170.669 226.062,172.339 224.913,172.824 223.110 C 173.047 222.282,173.510 221.378,173.853 221.102 C 176.113 219.281,176.400 218.730,176.400 216.221 L 176.400 213.758 178.371 213.049 C 180.341 212.341,181.200 211.172,181.200 209.203 C 181.200 208.830,181.667 208.001,182.237 207.362 C 183.768 205.645,184.795 203.905,184.811 203.000 C 184.830 201.952,185.540 201.105,186.908 200.500 C 189.102 199.529,188.986 196.077,186.718 194.863 C 185.649 194.291,184.988 192.925,184.654 190.600 C 184.479 189.377,184.043 188.670,182.803 187.600 C 181.807 186.741,181.027 185.637,180.783 184.743 C 180.565 183.942,179.669 182.502,178.793 181.543 C 177.917 180.585,177.200 179.407,177.200 178.926 C 177.200 177.150,176.422 176.000,174.630 175.130 C 172.918 174.298,172.829 174.168,172.574 172.133 C 172.368 170.484,172.030 169.733,171.071 168.795 C 170.390 168.130,169.460 166.644,169.004 165.493 C 168.403 163.977,167.834 163.235,166.941 162.800 C 165.596 162.146,165.008 161.064,164.654 158.600 C 164.479 157.377,164.043 156.670,162.803 155.600 C 161.807 154.741,161.027 153.637,160.783 152.743 C 160.565 151.942,159.669 150.502,158.793 149.543 C 157.917 148.585,157.200 147.407,157.200 146.926 C 157.200 145.144,156.422 144.000,154.610 143.120 C 153.615 142.637,152.835 142.052,152.875 141.821 C 153.137 140.326,152.209 137.962,150.774 136.469 C 147.571 133.135,148.181 132.896,160.103 132.821 C 170.062 132.758,172.400 133.071,172.400 134.468 C 172.400 134.631,172.862 135.226,173.427 135.791 C 173.993 136.356,174.723 137.606,175.051 138.569 C 175.975 141.279,180.410 143.349,181.072 141.379 C 181.158 141.123,180.544 140.977,179.507 141.006 C 176.991 141.077,175.145 138.881,175.553 136.300 C 175.579 136.135,175.420 136.000,175.200 136.000 C 174.980 136.000,174.791 135.775,174.779 135.500 C 174.768 135.225,174.029 134.415,173.136 133.700 L 171.513 132.400 160.566 132.400 C 149.651 132.400,149.617 132.403,149.038 133.300 M228.881 133.683 C 227.500 136.285,226.161 137.293,224.363 137.085 C 222.597 136.882,221.743 137.712,222.848 138.558 C 224.806 140.057,224.416 143.122,222.128 144.207 C 221.425 144.541,220.766 145.126,220.664 145.507 C 219.646 149.314,219.234 150.274,218.100 151.478 C 217.385 152.236,216.800 153.042,216.800 153.268 C 216.800 155.283,214.355 157.407,212.337 157.146 C 211.274 157.008,210.400 157.434,210.400 158.090 C 210.400 158.334,210.519 158.414,210.665 158.268 C 211.090 157.843,212.400 160.313,212.400 161.540 C 212.400 162.787,211.161 164.143,209.600 164.603 C 207.822 165.127,207.575 165.576,207.652 168.137 C 207.723 170.515,207.694 170.585,206.062 171.990 C 205.148 172.778,204.400 173.698,204.400 174.036 C 204.400 174.374,203.888 175.141,203.261 175.741 L 202.123 176.832 200.161 176.174 C 197.472 175.272,196.979 174.730,196.408 172.038 C 195.816 169.247,195.781 169.193,193.986 168.283 C 191.674 167.111,191.077 163.911,192.945 162.706 C 193.215 162.531,193.045 162.410,192.524 162.406 C 189.678 162.386,190.641 167.761,193.727 169.126 C 195.429 169.879,195.453 169.919,195.549 172.045 C 195.664 174.592,196.926 176.237,199.074 176.640 C 199.808 176.778,200.507 177.050,200.628 177.245 C 200.920 177.718,202.800 177.702,202.800 177.227 C 202.800 177.022,203.167 176.737,203.616 176.595 C 204.076 176.449,204.527 175.869,204.647 175.268 C 204.929 173.865,205.555 173.099,206.908 172.500 C 208.351 171.861,208.858 170.437,208.556 167.868 L 208.312 165.790 210.336 165.062 C 213.020 164.097,214.212 160.022,212.234 158.576 C 211.291 157.886,211.457 157.688,212.843 157.850 C 214.662 158.061,216.339 156.913,216.820 155.126 C 217.211 153.673,218.128 152.400,218.783 152.400 C 219.485 152.400,220.479 150.220,220.669 148.262 C 220.866 146.226,221.819 144.800,222.982 144.800 C 224.892 144.800,225.712 139.475,223.972 138.374 C 223.550 138.107,223.688 138.011,224.500 138.006 C 225.105 138.003,225.645 138.037,225.700 138.082 C 226.218 138.505,228.484 136.374,228.812 135.155 C 229.029 134.351,229.429 133.511,229.703 133.289 C 230.529 132.617,249.230 132.637,250.149 133.311 C 250.995 133.932,250.741 135.600,249.800 135.600 C 249.086 135.600,247.600 137.703,247.600 138.713 C 247.600 140.138,246.434 142.335,245.525 142.624 C 244.261 143.025,243.840 143.545,243.002 145.738 C 242.595 146.804,241.768 148.171,241.164 148.775 C 240.135 149.804,238.954 152.794,239.145 153.888 C 239.192 154.157,238.623 154.630,237.882 154.940 C 234.872 156.197,233.832 159.925,236.001 161.681 L 236.889 162.400 235.298 162.400 C 233.248 162.400,231.860 163.493,230.977 165.804 C 230.600 166.792,230.058 167.600,229.773 167.600 C 229.081 167.600,227.600 169.722,227.600 170.713 C 227.600 172.138,226.434 174.335,225.525 174.624 C 224.254 175.027,223.839 175.546,222.985 177.800 C 222.568 178.900,221.840 180.109,221.368 180.486 C 220.407 181.254,219.782 182.664,219.412 184.902 C 219.212 186.106,218.908 186.513,217.881 186.947 C 216.142 187.684,215.197 188.835,214.769 190.742 C 214.571 191.621,213.892 192.907,213.259 193.600 C 210.624 196.484,210.834 199.377,213.797 201.027 C 215.280 201.853,215.403 202.056,215.515 203.858 C 215.656 206.130,216.567 208.101,217.720 208.628 C 218.169 208.832,218.782 209.720,219.081 210.600 C 219.996 213.290,224.414 215.338,225.072 213.379 C 225.158 213.123,224.544 212.977,223.507 213.006 C 221.525 213.062,219.877 211.685,219.466 209.629 C 219.334 208.969,218.703 207.963,218.063 207.393 C 217.222 206.644,216.764 205.713,216.407 204.032 C 215.825 201.291,215.729 201.128,214.321 200.510 C 210.727 198.932,211.949 194.475,216.000 194.386 C 217.593 194.350,217.696 194.296,216.900 193.912 C 216.405 193.673,215.988 193.280,215.973 193.039 C 215.958 192.797,215.868 192.001,215.773 191.269 C 215.583 189.811,216.988 187.975,218.712 187.428 C 219.353 187.224,219.768 186.546,220.237 184.932 C 220.629 183.582,221.413 182.152,222.241 181.275 C 223.004 180.465,223.600 179.415,223.600 178.878 C 223.600 177.336,224.804 175.736,226.562 174.941 C 228.123 174.235,228.213 174.097,228.467 172.008 C 228.668 170.364,228.981 169.615,229.721 169.008 C 230.264 168.564,231.178 167.194,231.752 165.965 C 232.921 163.465,233.791 162.896,236.300 162.996 C 237.235 163.033,238.000 162.914,238.000 162.732 C 238.000 162.549,237.790 162.400,237.533 162.400 C 237.277 162.400,237.184 162.283,237.327 162.140 C 237.470 161.996,237.310 161.676,236.972 161.429 C 235.218 160.146,236.174 155.600,238.198 155.600 C 238.784 155.600,239.599 154.387,240.084 152.794 C 240.368 151.862,241.275 150.357,242.100 149.450 C 242.938 148.528,243.600 147.386,243.600 146.862 C 243.600 145.336,244.811 143.733,246.562 142.941 C 248.117 142.238,248.213 142.091,248.462 140.053 C 248.667 138.373,248.982 137.671,249.914 136.820 C 253.990 133.097,252.414 132.400,239.919 132.400 L 229.563 132.400 228.881 133.683 M179.284 143.500 C 179.236 144.105,179.124 144.974,179.035 145.431 C 178.855 146.352,180.550 148.800,181.367 148.800 C 182.253 148.800,183.085 150.139,183.354 152.000 C 183.665 154.144,184.772 156.400,185.513 156.400 C 185.805 156.400,186.465 157.352,186.980 158.516 C 188.327 161.562,192.057 163.259,193.523 161.492 C 193.913 161.023,193.694 160.958,192.168 161.095 C 189.810 161.306,188.588 160.507,187.549 158.074 C 187.109 157.043,186.318 155.748,185.791 155.195 C 185.264 154.643,184.462 152.990,184.009 151.523 C 183.334 149.339,182.937 148.703,181.813 148.008 C 180.091 146.944,179.826 146.117,180.540 144.044 C 181.089 142.450,181.080 142.400,180.238 142.400 C 179.579 142.400,179.349 142.664,179.284 143.500 M223.574 214.900 C 223.560 215.175,223.487 216.030,223.412 216.800 C 223.248 218.483,224.241 220.345,225.468 220.653 C 226.277 220.856,227.600 222.918,227.600 223.977 C 227.600 224.459,227.667 224.556,229.586 226.853 C 230.254 227.652,230.800 228.696,230.800 229.173 C 230.800 230.777,231.971 232.395,233.604 233.048 C 234.940 233.583,235.215 233.900,235.419 235.139 C 235.778 237.311,236.427 238.791,237.487 239.851 C 238.009 240.372,238.702 241.555,239.028 242.479 C 239.733 244.477,240.539 245.448,241.743 245.750 C 242.604 245.966,243.600 248.425,243.600 250.336 C 243.600 251.110,245.166 252.800,245.883 252.800 C 246.347 252.800,246.947 253.889,247.150 255.100 C 247.470 256.996,252.401 258.845,253.525 257.490 C 253.838 257.114,253.416 256.995,251.710 256.977 C 249.418 256.954,247.607 255.646,247.602 254.009 C 247.601 253.684,246.880 252.759,246.000 251.955 C 244.877 250.928,244.391 250.151,244.370 249.346 C 244.296 246.473,243.773 245.431,242.210 245.038 C 240.977 244.729,239.647 242.854,239.525 241.253 C 239.473 240.564,239.288 240.000,239.115 240.000 C 238.942 240.000,238.800 239.811,238.800 239.581 C 238.800 239.350,238.364 238.765,237.832 238.281 C 237.291 237.789,236.585 236.404,236.233 235.144 C 235.739 233.376,235.400 232.837,234.664 232.652 C 231.790 231.930,230.360 226.400,233.047 226.400 C 234.421 226.400,233.114 225.751,231.555 225.659 C 229.710 225.550,229.185 225.103,228.017 222.645 C 227.611 221.790,226.538 220.440,225.633 219.645 L 223.988 218.200 224.575 216.300 C 225.136 214.482,225.128 214.400,224.381 214.400 C 223.951 214.400,223.589 214.625,223.574 214.900 M196.621 216.688 C 195.630 217.679,195.552 217.975,195.735 220.034 L 195.937 222.292 194.398 222.753 C 192.543 223.309,190.800 225.252,190.800 226.763 C 190.800 227.480,190.252 228.476,189.227 229.619 C 188.318 230.634,187.374 232.265,186.990 233.487 C 186.623 234.655,186.086 235.600,185.790 235.600 C 184.840 235.600,183.669 237.777,183.330 240.173 C 183.030 242.296,182.873 242.573,181.600 243.246 C 178.486 244.892,178.184 249.988,181.200 249.988 C 181.594 249.988,181.647 249.887,181.354 249.694 C 180.985 249.451,180.315 247.985,180.214 247.200 C 180.199 247.090,180.070 246.815,179.925 246.589 C 179.596 246.073,180.619 244.790,182.254 243.670 C 183.243 242.993,183.656 242.264,184.209 240.223 C 184.688 238.454,185.269 237.314,186.046 236.622 C 186.671 236.065,187.306 235.118,187.457 234.517 C 188.239 231.399,189.811 230.150,192.551 230.470 L 193.900 230.628 192.750 229.553 C 190.750 227.685,191.953 223.600,194.503 223.600 C 195.732 223.600,196.420 222.555,196.671 220.311 C 197.041 217.005,197.820 216.432,199.254 218.411 C 199.887 219.285,200.688 220.000,201.033 220.000 C 201.857 220.000,204.124 222.276,203.808 222.786 C 203.229 223.724,204.424 226.392,205.715 227.041 C 208.461 228.420,209.515 232.374,207.511 233.777 C 206.651 234.380,206.682 234.400,208.458 234.400 C 210.345 234.400,212.400 236.384,212.400 238.207 C 212.400 238.550,213.120 239.580,214.000 240.496 C 215.443 241.998,215.600 242.362,215.600 244.219 C 215.600 246.288,216.364 247.600,217.570 247.600 C 220.189 247.600,221.554 252.293,219.393 253.867 L 218.385 254.600 220.345 254.465 C 222.538 254.313,224.024 255.635,224.572 258.227 C 224.715 258.902,225.454 260.041,226.216 260.759 C 227.549 262.017,227.602 262.177,227.647 265.132 C 227.704 268.792,227.730 268.416,227.352 269.400 C 227.064 270.150,227.087 270.158,227.722 269.529 C 228.260 268.995,228.400 268.107,228.400 265.213 L 228.400 261.569 226.791 259.895 C 225.906 258.974,225.007 257.570,224.793 256.775 C 224.579 255.980,223.818 254.676,223.102 253.876 C 222.378 253.068,221.533 251.485,221.199 250.311 C 220.641 248.351,220.448 248.129,218.500 247.200 L 216.403 246.200 216.401 243.836 C 216.400 241.563,216.333 241.410,214.653 239.836 C 213.540 238.794,212.817 237.723,212.660 236.885 C 212.525 236.162,211.826 234.840,211.107 233.948 C 210.388 233.055,209.440 231.217,209.000 229.862 C 208.357 227.883,207.958 227.283,206.964 226.803 C 205.593 226.141,204.800 224.804,204.800 223.153 C 204.800 221.426,204.454 220.918,202.364 219.577 C 201.284 218.884,200.400 218.098,200.400 217.830 C 200.400 216.046,197.991 215.318,196.621 216.688 M178.267 250.483 C 176.163 250.920,174.800 252.671,174.800 254.935 C 174.800 255.428,174.141 256.589,173.335 257.514 C 172.529 258.439,171.537 260.142,171.130 261.298 C 170.723 262.454,170.178 263.472,169.918 263.559 C 168.420 264.063,167.600 265.586,167.600 267.862 C 167.600 270.575,168.237 270.336,168.539 267.509 C 168.772 265.333,169.023 264.800,169.813 264.800 C 170.364 264.800,171.600 262.871,171.600 262.012 C 171.600 260.252,173.644 258.400,175.587 258.400 L 177.564 258.400 176.582 257.418 C 174.072 254.908,176.471 250.574,180.100 251.063 C 180.880 251.168,181.626 251.082,181.756 250.872 C 182.089 250.332,180.074 250.107,178.267 250.483 M251.381 258.831 C 250.149 260.823,251.332 264.139,253.596 265.045 C 255.128 265.658,255.165 265.721,255.305 267.936 L 255.449 270.200 255.524 267.708 L 255.600 265.216 254.100 264.441 C 251.689 263.196,251.033 259.939,252.945 258.706 C 253.215 258.531,253.045 258.410,252.524 258.406 C 252.042 258.403,251.527 258.594,251.381 258.831 " stroke="none" fill="#5ceccc" fill-rule="evenodd"></path><path id="path4" d="M149.636 133.324 C 148.890 134.070,149.145 134.773,150.774 136.469 C 152.209 137.962,153.137 140.326,152.875 141.821 C 152.835 142.052,153.615 142.637,154.610 143.120 C 156.422 144.000,157.200 145.144,157.200 146.926 C 157.200 147.407,157.917 148.585,158.793 149.543 C 159.669 150.502,160.565 151.942,160.783 152.743 C 161.027 153.637,161.807 154.741,162.803 155.600 C 164.043 156.670,164.479 157.377,164.654 158.600 C 165.008 161.064,165.596 162.146,166.941 162.800 C 167.834 163.235,168.403 163.977,169.004 165.493 C 169.460 166.644,170.390 168.130,171.071 168.795 C 172.030 169.733,172.368 170.484,172.574 172.133 C 172.829 174.168,172.918 174.298,174.630 175.130 C 176.422 176.000,177.200 177.150,177.200 178.926 C 177.200 179.407,177.917 180.585,178.793 181.543 C 179.669 182.502,180.565 183.942,180.783 184.743 C 181.027 185.637,181.807 186.741,182.803 187.600 C 184.043 188.670,184.479 189.377,184.654 190.600 C 184.988 192.925,185.649 194.291,186.718 194.863 C 188.986 196.077,189.102 199.529,186.908 200.500 C 185.540 201.105,184.830 201.952,184.811 203.000 C 184.795 203.905,183.768 205.645,182.237 207.362 C 181.667 208.001,181.200 208.830,181.200 209.203 C 181.200 211.172,180.341 212.341,178.371 213.049 L 176.400 213.758 176.400 216.221 C 176.400 218.730,176.113 219.281,173.853 221.102 C 173.510 221.378,173.047 222.282,172.824 223.110 C 172.339 224.913,170.669 226.062,168.843 225.850 C 167.652 225.711,167.098 226.166,168.065 226.488 C 168.321 226.574,168.571 226.904,168.620 227.222 C 168.670 227.540,168.802 228.366,168.913 229.057 C 169.194 230.790,168.483 232.000,166.615 232.974 C 165.417 233.598,164.965 234.116,164.767 235.090 C 164.486 236.473,163.867 237.516,162.230 239.362 C 161.664 240.001,161.200 240.830,161.200 241.203 C 161.200 243.172,160.341 244.341,158.371 245.049 L 156.400 245.758 156.400 248.264 C 156.400 250.690,156.345 250.823,154.700 252.404 C 153.765 253.302,152.985 254.164,152.967 254.319 C 152.822 255.574,152.212 256.800,151.733 256.800 C 151.414 256.800,151.255 256.965,151.380 257.167 C 151.660 257.621,149.787 258.017,148.302 257.818 C 147.698 257.737,147.085 257.863,146.940 258.097 C 146.795 258.332,146.858 258.412,147.079 258.275 C 147.866 257.788,148.870 259.030,148.978 260.621 C 149.145 263.087,148.569 264.212,146.779 264.915 C 145.774 265.310,145.188 265.802,145.166 266.268 C 145.147 266.671,145.088 267.585,145.036 268.300 C 144.984 269.015,145.079 269.600,145.248 269.600 C 145.418 269.600,145.611 268.756,145.678 267.723 C 145.791 265.980,145.892 265.823,147.098 265.513 C 148.687 265.103,149.430 263.991,149.782 261.492 C 149.930 260.443,150.220 259.689,150.426 259.816 C 150.632 259.943,150.800 259.787,150.800 259.470 C 150.800 259.152,151.252 258.596,151.805 258.234 C 152.436 257.820,152.989 256.906,153.291 255.776 C 153.653 254.423,154.102 253.783,155.106 253.191 C 156.880 252.144,157.598 250.343,157.219 247.892 C 156.937 246.063,156.968 245.975,157.962 245.757 C 160.809 245.134,160.985 244.996,161.486 243.002 C 161.971 241.064,162.628 240.246,163.343 240.688 C 163.552 240.818,163.594 240.715,163.436 240.459 C 163.278 240.203,163.413 239.893,163.739 239.768 C 164.063 239.644,164.462 239.060,164.626 238.471 C 164.791 237.882,165.003 237.130,165.098 236.800 C 165.194 236.470,165.363 235.632,165.475 234.937 C 165.645 233.885,165.899 233.633,166.999 233.427 C 168.778 233.093,170.000 230.769,170.000 227.722 C 170.000 227.629,170.180 227.664,170.400 227.800 C 170.620 227.936,170.800 227.851,170.800 227.610 C 170.800 227.370,171.429 226.545,172.197 225.777 C 172.965 225.008,173.574 224.249,173.549 224.090 C 173.325 222.610,173.730 221.747,174.909 221.200 C 176.739 220.350,177.619 218.335,177.229 215.892 C 176.937 214.060,176.966 213.975,177.962 213.757 C 180.809 213.134,180.985 212.996,181.486 211.002 C 181.971 209.064,182.628 208.246,183.343 208.688 C 183.552 208.818,183.594 208.715,183.436 208.459 C 183.278 208.203,183.413 207.893,183.739 207.768 C 184.063 207.644,184.462 207.060,184.626 206.471 C 184.791 205.882,185.003 205.130,185.098 204.800 C 185.194 204.470,185.365 203.615,185.480 202.900 C 185.658 201.784,185.850 201.600,186.833 201.600 C 187.932 201.600,189.160 200.139,189.444 198.493 C 189.666 197.207,188.616 194.905,187.262 193.708 C 186.458 192.997,185.980 192.409,186.200 192.402 C 186.420 192.394,186.366 192.239,186.080 192.058 C 185.795 191.877,185.525 191.070,185.480 190.264 C 185.436 189.459,185.285 188.800,185.143 188.800 C 185.002 188.800,184.774 188.350,184.636 187.800 C 184.463 187.110,184.108 186.798,183.492 186.794 C 182.061 186.784,181.599 186.256,181.496 184.515 C 181.443 183.617,181.274 182.958,181.120 183.052 C 180.966 183.146,180.728 182.625,180.591 181.895 C 180.431 181.037,179.924 180.290,179.159 179.784 C 178.509 179.353,177.863 178.550,177.725 178.000 C 177.587 177.450,177.231 176.626,176.935 176.168 C 176.639 175.711,176.533 175.201,176.699 175.035 C 176.864 174.869,176.820 174.772,176.600 174.820 C 175.128 175.140,173.598 174.257,173.532 173.050 C 173.424 171.082,173.347 170.674,172.859 169.474 C 172.606 168.855,172.400 168.202,172.400 168.023 C 172.400 167.844,172.095 167.451,171.723 167.149 C 171.263 166.776,171.143 166.760,171.347 167.100 C 171.770 167.805,171.350 167.721,170.405 166.911 C 169.962 166.532,169.600 165.733,169.600 165.135 C 169.600 164.537,169.417 163.934,169.193 163.796 C 168.970 163.658,168.864 163.420,168.958 163.268 C 169.052 163.116,168.875 162.644,168.565 162.219 C 168.254 161.795,168.000 161.669,168.000 161.939 C 168.000 162.251,167.719 162.169,167.232 161.716 C 166.809 161.322,166.465 160.840,166.466 160.645 C 166.467 160.449,166.264 160.163,166.014 160.009 C 165.765 159.855,165.525 159.070,165.480 158.264 C 165.436 157.459,165.285 156.800,165.143 156.800 C 165.002 156.800,164.774 156.350,164.636 155.800 C 164.463 155.110,164.108 154.798,163.492 154.794 C 162.061 154.784,161.599 154.256,161.496 152.515 C 161.443 151.617,161.274 150.958,161.120 151.052 C 160.966 151.146,160.728 150.625,160.591 149.895 C 160.431 149.037,159.924 148.290,159.159 147.784 C 158.509 147.353,157.863 146.550,157.725 146.000 C 157.587 145.450,157.231 144.626,156.935 144.168 C 156.639 143.711,156.533 143.201,156.699 143.035 C 156.864 142.869,156.820 142.772,156.600 142.820 C 154.745 143.223,153.600 142.290,153.600 140.374 C 153.600 139.314,153.434 138.345,153.231 138.219 C 153.028 138.094,152.746 137.465,152.605 136.823 C 152.464 136.181,152.056 135.418,151.698 135.128 C 151.223 134.743,151.128 134.735,151.347 135.100 C 151.770 135.805,151.350 135.721,150.405 134.911 C 148.957 133.672,149.486 133.600,160.104 133.600 C 170.337 133.600,170.621 133.622,171.131 134.439 C 171.420 134.900,171.546 135.387,171.413 135.520 C 171.280 135.653,171.852 136.173,172.684 136.675 C 173.930 137.427,174.268 137.918,174.599 139.452 C 174.838 140.566,175.311 141.494,175.771 141.758 C 177.352 142.664,178.309 144.175,178.541 146.134 C 178.788 148.220,179.464 149.045,181.254 149.446 C 182.332 149.687,182.784 150.922,182.796 153.654 C 182.801 154.873,183.754 156.912,184.139 156.527 C 184.283 156.384,184.400 156.477,184.400 156.733 C 184.400 156.990,184.625 157.203,184.900 157.206 C 185.882 157.218,186.496 157.925,186.647 159.218 C 186.749 160.100,187.358 161.097,188.500 162.253 C 190.154 163.928,190.330 164.378,190.865 168.300 C 190.903 168.575,191.019 168.715,191.123 168.611 C 191.227 168.506,191.782 168.672,192.356 168.979 C 192.930 169.286,193.715 169.636,194.100 169.756 C 194.666 169.933,194.800 170.440,194.800 172.402 C 194.800 175.446,195.525 176.641,197.732 177.236 C 199.224 177.637,201.410 178.800,200.673 178.800 C 200.506 178.800,200.726 179.184,201.163 179.652 L 201.957 180.505 203.209 179.252 C 203.898 178.564,204.345 178.000,204.202 178.000 C 204.060 178.000,204.227 177.715,204.575 177.368 C 204.923 177.020,205.113 176.582,204.997 176.395 C 204.882 176.208,204.970 175.942,205.193 175.804 C 205.417 175.666,205.600 175.113,205.600 174.576 C 205.600 173.766,205.797 173.600,206.760 173.600 C 208.793 173.600,210.251 169.764,209.235 167.092 C 208.858 166.101,208.915 165.989,209.912 165.770 C 213.147 165.057,213.183 165.013,213.802 161.089 C 213.933 160.258,214.211 159.683,214.420 159.812 C 214.629 159.942,214.800 159.851,214.800 159.610 C 214.800 159.370,215.429 158.545,216.197 157.777 C 216.965 157.008,217.574 156.249,217.549 156.090 C 217.323 154.598,217.700 153.738,218.758 153.338 C 220.678 152.614,221.463 150.775,221.571 146.745 C 221.595 145.869,221.832 145.645,222.960 145.434 C 224.778 145.093,226.000 142.797,226.000 139.722 C 226.000 139.629,226.180 139.664,226.400 139.800 C 226.620 139.936,226.800 139.836,226.800 139.578 C 226.800 139.319,227.389 138.544,228.108 137.854 C 228.827 137.164,229.430 136.375,229.448 136.100 C 229.466 135.825,229.507 135.150,229.540 134.600 L 229.600 133.600 240.000 133.600 C 248.978 133.600,250.400 133.682,250.400 134.200 C 250.400 134.546,250.039 134.800,249.547 134.800 C 248.240 134.800,246.893 136.673,246.583 138.920 C 246.427 140.058,246.183 140.696,246.011 140.418 C 245.806 140.086,245.642 140.196,245.493 140.766 C 245.373 141.225,244.988 141.600,244.637 141.600 C 244.287 141.600,244.000 141.861,244.000 142.180 C 244.000 142.499,243.735 142.909,243.411 143.090 C 242.857 143.400,242.498 144.503,242.430 146.100 C 242.413 146.485,242.130 146.800,241.800 146.800 C 241.470 146.800,241.200 147.010,241.200 147.267 C 241.200 147.523,241.089 147.622,240.952 147.486 C 240.210 146.744,238.681 150.121,238.884 152.053 L 239.026 153.400 239.546 151.637 C 239.831 150.667,240.559 149.379,241.164 148.775 C 241.768 148.171,242.595 146.804,243.002 145.738 C 243.840 143.545,244.261 143.025,245.525 142.624 C 246.434 142.335,247.600 140.138,247.600 138.713 C 247.600 137.703,249.086 135.600,249.800 135.600 C 250.741 135.600,250.995 133.932,250.149 133.311 C 249.230 132.637,230.529 132.617,229.703 133.289 C 229.429 133.511,229.029 134.351,228.812 135.155 C 228.474 136.412,226.715 138.089,225.810 138.017 C 224.298 137.896,223.471 138.057,223.972 138.374 C 225.712 139.475,224.892 144.800,222.982 144.800 C 221.819 144.800,220.866 146.226,220.669 148.262 C 220.479 150.220,219.485 152.400,218.783 152.400 C 218.128 152.400,217.211 153.673,216.820 155.126 C 216.339 156.913,214.662 158.061,212.843 157.850 C 211.457 157.688,211.291 157.886,212.234 158.576 C 214.212 160.022,213.020 164.097,210.336 165.062 L 208.312 165.790 208.556 167.868 C 208.858 170.437,208.351 171.861,206.908 172.500 C 205.555 173.099,204.929 173.865,204.647 175.268 C 204.527 175.869,204.076 176.449,203.616 176.595 C 203.167 176.737,202.800 177.022,202.800 177.227 C 202.800 177.702,200.920 177.718,200.628 177.245 C 200.507 177.050,199.808 176.778,199.074 176.640 C 196.926 176.237,195.664 174.592,195.549 172.045 C 195.453 169.919,195.429 169.879,193.727 169.126 C 190.565 167.728,189.692 162.400,192.624 162.400 C 193.161 162.400,193.599 162.265,193.599 162.100 C 193.598 161.935,192.626 161.792,191.439 161.782 C 188.837 161.760,188.212 161.303,186.980 158.516 C 186.465 157.352,185.805 156.400,185.513 156.400 C 184.772 156.400,183.665 154.144,183.354 152.000 C 183.085 150.139,182.253 148.800,181.367 148.800 C 180.550 148.800,178.855 146.352,179.035 145.431 C 179.124 144.974,179.236 144.105,179.284 143.500 C 179.356 142.584,179.556 142.400,180.485 142.400 C 181.098 142.400,181.600 142.259,181.600 142.088 C 181.600 141.916,180.629 141.781,179.442 141.788 C 176.857 141.802,175.919 141.114,175.051 138.569 C 174.723 137.606,173.993 136.356,173.427 135.791 C 172.862 135.226,172.400 134.631,172.400 134.468 C 172.400 132.881,151.147 131.813,149.636 133.324 M238.400 153.998 C 238.070 154.191,237.251 154.568,236.580 154.836 C 235.189 155.393,234.400 156.773,234.400 158.651 C 234.400 159.362,234.130 160.213,233.800 160.543 C 233.470 160.873,233.200 161.325,233.200 161.548 C 233.200 161.771,232.992 162.081,232.738 162.238 C 232.425 162.432,232.385 162.343,232.614 161.962 C 232.799 161.653,232.470 161.850,231.882 162.400 C 231.295 162.950,230.808 163.760,230.801 164.200 C 230.776 165.861,230.305 166.800,229.500 166.800 C 228.236 166.800,226.888 168.703,226.583 170.920 C 226.397 172.276,226.200 172.728,225.962 172.351 C 225.689 171.921,225.611 171.962,225.606 172.537 C 225.603 172.943,225.240 173.369,224.800 173.484 C 224.360 173.599,224.000 173.933,224.000 174.227 C 224.000 174.520,223.735 174.909,223.411 175.090 C 222.857 175.400,222.498 176.503,222.430 178.100 C 222.413 178.485,222.130 178.800,221.800 178.800 C 221.470 178.800,221.200 179.010,221.200 179.267 C 221.200 179.523,221.089 179.622,220.952 179.486 C 220.210 178.743,218.800 181.851,218.800 184.231 C 218.800 185.584,218.628 186.083,218.100 186.259 C 215.341 187.182,214.400 188.207,214.400 190.290 C 214.400 190.920,214.069 191.345,213.376 191.609 C 212.813 191.823,212.463 192.179,212.600 192.399 C 212.736 192.620,212.567 192.800,212.224 192.800 C 211.881 192.800,211.578 192.980,211.550 193.200 C 211.477 193.785,211.315 194.385,211.199 194.500 C 211.024 194.673,210.805 196.540,210.777 198.097 C 210.751 199.509,211.668 201.458,212.308 201.351 C 212.587 201.304,212.839 201.362,214.200 201.787 C 214.645 201.926,214.800 202.588,214.800 204.342 C 214.800 206.606,215.591 209.076,216.139 208.527 C 216.283 208.384,216.400 208.457,216.400 208.690 C 216.400 208.923,216.819 209.218,217.331 209.347 C 218.062 209.530,218.342 209.983,218.631 211.452 C 218.862 212.622,219.293 213.487,219.784 213.761 C 221.067 214.479,222.183 216.069,222.464 217.582 C 222.610 218.362,222.790 219.270,222.864 219.600 C 223.036 220.361,224.782 221.594,225.692 221.597 C 226.394 221.600,226.598 222.121,226.991 224.928 C 227.247 226.760,228.282 228.312,229.460 228.633 C 230.266 228.852,230.476 229.401,230.866 232.300 C 230.903 232.575,231.019 232.715,231.123 232.611 C 231.227 232.506,231.782 232.672,232.356 232.979 C 232.930 233.286,233.715 233.636,234.100 233.756 C 234.705 233.945,235.177 237.078,234.700 237.739 C 234.645 237.815,234.840 238.167,235.134 238.521 C 235.428 238.875,235.571 239.324,235.451 239.518 C 235.331 239.712,235.925 240.260,236.771 240.736 C 238.088 241.476,238.347 241.852,238.572 243.354 C 238.792 244.817,240.400 247.292,240.400 246.166 C 240.400 245.042,242.421 248.208,242.638 249.673 C 242.983 251.997,243.751 253.113,245.278 253.508 C 246.352 253.787,246.576 254.055,246.707 255.219 C 246.816 256.189,247.373 257.112,248.578 258.320 C 250.021 259.768,250.332 260.367,250.537 262.096 C 250.817 264.462,251.375 265.173,253.256 265.558 C 254.541 265.821,254.596 265.906,254.516 267.503 C 254.470 268.421,254.605 269.280,254.816 269.410 C 255.041 269.549,255.200 268.829,255.200 267.667 C 255.200 265.733,255.163 265.672,253.615 265.053 C 250.569 263.834,249.759 258.400,252.624 258.400 C 254.636 258.400,253.506 257.797,251.374 257.734 C 249.263 257.671,247.386 256.500,247.150 255.100 C 246.938 253.838,246.341 252.800,245.827 252.800 C 245.129 252.800,243.600 251.070,243.600 250.280 C 243.600 248.419,242.593 245.963,241.743 245.750 C 240.539 245.448,239.733 244.477,239.028 242.479 C 238.702 241.555,238.009 240.372,237.487 239.851 C 236.427 238.791,235.778 237.311,235.419 235.139 C 235.215 233.900,234.940 233.583,233.604 233.048 C 231.971 232.395,230.800 230.777,230.800 229.173 C 230.800 228.696,230.254 227.652,229.586 226.853 C 227.667 224.556,227.600 224.459,227.600 223.977 C 227.600 222.918,226.277 220.856,225.468 220.653 C 224.241 220.345,223.248 218.483,223.412 216.800 C 223.487 216.030,223.560 215.175,223.574 214.900 C 223.589 214.625,224.050 214.400,224.600 214.400 C 225.150 214.400,225.600 214.259,225.600 214.088 C 225.600 213.916,224.615 213.781,223.411 213.788 C 220.862 213.802,219.940 213.123,219.081 210.600 C 218.782 209.720,218.169 208.832,217.720 208.628 C 216.567 208.101,215.656 206.130,215.515 203.858 C 215.403 202.056,215.280 201.853,213.797 201.027 C 210.834 199.377,210.624 196.484,213.259 193.600 C 213.892 192.907,214.571 191.621,214.769 190.742 C 215.197 188.835,216.142 187.684,217.881 186.947 C 218.908 186.513,219.212 186.106,219.412 184.902 C 219.782 182.664,220.407 181.254,221.368 180.486 C 221.840 180.109,222.568 178.900,222.985 177.800 C 223.839 175.546,224.254 175.027,225.525 174.624 C 226.434 174.335,227.600 172.138,227.600 170.713 C 227.600 169.722,229.081 167.600,229.773 167.600 C 230.058 167.600,230.600 166.792,230.977 165.804 C 231.860 163.493,233.248 162.400,235.298 162.400 L 236.889 162.400 236.001 161.681 C 233.838 159.930,234.872 156.198,237.867 154.946 C 238.600 154.640,239.200 154.212,239.200 153.995 C 239.200 153.536,239.190 153.536,238.400 153.998 M195.600 215.600 C 194.789 216.411,194.677 217.091,194.794 220.500 C 194.840 221.830,194.700 222.409,194.330 222.430 C 191.488 222.589,190.553 223.567,190.430 226.510 C 190.413 226.900,189.939 227.395,189.376 227.609 C 188.813 227.823,188.463 228.179,188.600 228.399 C 188.736 228.620,188.567 228.800,188.224 228.800 C 187.881 228.800,187.578 228.980,187.550 229.200 C 187.523 229.420,187.478 229.765,187.450 229.967 C 187.423 230.168,187.268 230.466,187.106 230.628 C 186.944 230.790,186.696 231.795,186.554 232.861 C 186.343 234.449,186.152 234.800,185.495 234.800 C 184.165 234.800,182.810 236.761,182.732 238.800 C 182.628 241.517,182.595 241.760,182.262 242.300 C 182.092 242.575,181.541 242.800,181.038 242.800 C 179.733 242.800,178.914 243.909,178.587 246.120 C 178.431 247.176,178.055 248.288,177.752 248.591 C 177.448 248.895,177.200 249.325,177.200 249.548 C 177.200 249.771,176.992 250.081,176.738 250.238 C 176.427 250.430,176.383 250.340,176.604 249.962 C 176.784 249.653,176.448 249.908,175.859 250.528 C 174.809 251.632,174.490 252.478,174.430 254.310 C 174.410 254.903,174.043 255.356,173.376 255.609 C 172.813 255.823,172.463 256.179,172.600 256.399 C 172.736 256.620,172.567 256.800,172.224 256.800 C 171.881 256.800,171.578 256.980,171.550 257.200 C 171.497 257.628,171.488 257.664,171.043 259.224 C 170.722 260.352,170.478 261.558,170.431 262.250 C 170.414 262.498,169.868 262.806,169.218 262.936 C 167.726 263.235,166.788 264.645,166.752 266.645 C 166.698 269.611,167.510 269.402,156.105 269.383 L 145.800 269.366 156.000 269.583 C 168.482 269.849,167.600 270.004,167.600 267.535 C 167.600 265.600,168.515 264.032,169.918 263.559 C 170.178 263.472,170.723 262.454,171.130 261.298 C 171.537 260.142,172.529 258.439,173.335 257.514 C 174.141 256.589,174.800 255.428,174.800 254.935 C 174.800 251.951,176.708 250.305,180.161 250.310 C 181.710 250.312,181.740 250.291,180.699 249.922 C 178.205 249.040,178.705 244.750,181.469 243.317 C 182.896 242.576,183.022 242.364,183.330 240.181 C 183.668 237.779,184.839 235.600,185.790 235.600 C 186.086 235.600,186.623 234.655,186.990 233.487 C 187.374 232.265,188.318 230.634,189.227 229.619 C 190.252 228.476,190.800 227.480,190.800 226.763 C 190.800 225.252,192.543 223.309,194.398 222.753 L 195.937 222.292 195.735 220.034 C 195.538 217.825,196.700 215.600,198.052 215.600 C 198.608 215.600,200.400 217.302,200.400 217.830 C 200.400 218.098,201.284 218.884,202.364 219.577 C 204.454 220.918,204.800 221.426,204.800 223.153 C 204.800 224.804,205.593 226.141,206.964 226.803 C 207.958 227.283,208.357 227.883,209.000 229.862 C 209.440 231.217,210.388 233.055,211.107 233.948 C 211.826 234.840,212.525 236.162,212.660 236.885 C 212.817 237.723,213.540 238.794,214.653 239.836 C 216.333 241.410,216.400 241.563,216.401 243.836 L 216.403 246.200 218.500 247.200 C 220.448 248.129,220.641 248.351,221.199 250.311 C 221.533 251.485,222.378 253.068,223.102 253.876 C 223.818 254.676,224.579 255.980,224.793 256.775 C 225.007 257.570,225.918 258.986,226.818 259.922 L 228.453 261.624 228.326 265.613 C 228.257 267.807,228.335 269.601,228.500 269.601 C 228.665 269.600,228.800 269.409,228.800 269.176 C 228.800 268.943,229.025 268.888,229.300 269.053 C 229.682 269.282,229.694 269.217,229.353 268.777 C 228.944 268.249,228.946 267.033,229.358 263.217 C 229.573 261.231,228.516 259.253,227.034 258.869 C 225.816 258.553,224.941 256.620,225.409 255.279 C 225.509 254.993,225.422 254.863,225.216 254.990 C 225.009 255.118,224.728 254.625,224.591 253.895 C 224.432 253.045,223.921 252.286,223.172 251.784 C 222.351 251.234,221.821 250.380,221.396 248.924 C 220.803 246.886,220.758 246.843,218.966 246.574 L 217.141 246.300 217.308 244.050 C 217.523 241.148,216.694 239.239,215.078 238.916 C 213.885 238.677,213.724 238.464,213.475 236.800 C 213.392 236.250,213.117 235.293,212.863 234.674 C 212.608 234.055,212.400 233.290,212.400 232.974 C 212.400 232.658,212.263 232.400,212.096 232.400 C 211.310 232.400,209.599 230.277,209.583 229.284 C 209.566 228.202,208.049 224.938,208.017 225.916 C 207.998 226.505,206.462 225.247,206.466 224.645 C 206.467 224.449,206.285 224.176,206.060 224.037 C 205.836 223.899,205.565 223.248,205.459 222.593 C 205.353 221.937,205.230 221.310,205.186 221.200 C 205.141 221.090,205.127 220.865,205.153 220.700 C 205.179 220.535,205.009 220.400,204.776 220.400 C 204.543 220.400,204.458 220.229,204.588 220.020 C 204.782 219.706,203.221 218.515,202.900 218.732 C 202.368 219.092,201.600 218.637,201.600 217.962 C 201.600 215.217,197.570 213.630,195.600 215.600 M229.738 269.506 C 229.484 269.668,234.911 269.800,241.799 269.800 C 248.688 269.800,254.240 269.665,254.138 269.500 C 253.899 269.112,230.348 269.118,229.738 269.506 " stroke="none" fill="#68f8d4" fill-rule="evenodd"></path></g></svg>