<?xml version="1.0" encoding="UTF-8" standalone="no"?><!DOCTYPE svg PUBLIC "-//W3C//DTD SVG 1.1//EN" "http://www.w3.org/Graphics/SVG/1.1/DTD/svg11.dtd"><svg width="100%" height="100%" viewBox="0 0 71 134" version="1.1" xmlns="http://www.w3.org/2000/svg" xmlns:xlink="http://www.w3.org/1999/xlink" xml:space="preserve" xmlns:serif="http://www.serif.com/" style="fill-rule:evenodd;clip-rule:evenodd;stroke-linejoin:round;stroke-miterlimit:2;"><g><path d="M64.948,0.294c1.582,12.409 3.165,24.818 4.748,37.227l-30.199,0c6.978,10.906 14.211,21.644 21.177,32.556c7.537,11.808 11.885,22.911 7.693,37.102c-5.609,18.923 -23.103,26.071 -41.211,26.071l-19.114,0c-4.189,0 -3.121,-1.491 -3.662,-5.62c-1.4,-10.662 -2.8,-21.324 -4.2,-31.986l31.908,0c-8.895,-13.631 -20.254,-26.42 -28.022,-40.694c-7.84,-14.409 -3.858,-33.259 7.795,-44.261c14.225,-13.43 35.085,-10.395 53.087,-10.395Z" style="fill:#fff;fill-rule:nonzero;"/><path d="M27.156,133.25l-19.114,0c-4.189,0 -3.121,-1.491 -3.662,-5.62c-1.4,-10.662 -2.8,-21.324 -4.2,-31.986l31.797,0c6.756,10.536 14.965,20.454 21.953,30.779l-4.406,2.38c-6.537,3.006 -14.061,4.372 -21.721,4.444l-0.05,0c-0.011,0 -0.022,0.001 -0.033,0.001l-0.097,0c-0.007,0 -0.012,0.001 -0.019,0.001l-0.176,0c-0.008,0.001 -0.016,0.001 -0.023,0.001l-0.249,0Z" style="fill:url(#_Linear1);"/><path d="M69.696,37.521l-30.14,0c-7.375,-10.323 -15.57,-20.395 -21.833,-31.27c8.833,-5.304 19.355,-6.251 29.906,-6.251c0.697,0 1.393,0.004 2.09,0.012c5.162,0.055 10.301,0.282 15.229,0.282c0.155,1.215 0.31,2.429 0.465,3.644c0.179,1.403 0.357,2.805 0.536,4.208c0.133,1.039 0.266,2.08 0.398,3.12c1.116,8.751 2.233,17.504 3.349,26.255Z" style="fill:url(#_Linear2);"/></g><defs><linearGradient id="_Linear1" x1="0" y1="0" x2="1" y2="0" gradientUnits="userSpaceOnUse" gradientTransform="matrix(-34.2392,27.7264,-27.7264,-34.2392,37.5538,102.531)"><stop offset="0" style="stop-color:#b4b6c0;stop-opacity:1"/><stop offset="0.1" style="stop-color:#bec0c9;stop-opacity:1"/><stop offset="0.2" style="stop-color:#d9dadf;stop-opacity:1"/><stop offset="0.5" style="stop-color:#fbfcfc;stop-opacity:1"/><stop offset="1" style="stop-color:#fff;stop-opacity:1"/></linearGradient><linearGradient id="_Linear2" x1="0" y1="0" x2="1" y2="0" gradientUnits="userSpaceOnUse" gradientTransform="matrix(33.232,-27.885,27.885,33.232,33.5728,30.3921)"><stop offset="0" style="stop-color:#b4b6c0;stop-opacity:1"/><stop offset="0.3" style="stop-color:#ebecf0;stop-opacity:1"/><stop offset="1" style="stop-color:#fff;stop-opacity:1"/></linearGradient></defs></svg>