<?xml version="1.0" standalone="no"?>
<!DOCTYPE svg PUBLIC "-//W3C//DTD SVG 20010904//EN"
 "http://www.w3.org/TR/2001/REC-SVG-20010904/DTD/svg10.dtd">
<svg version="1.0" xmlns="http://www.w3.org/2000/svg"
 width="100.000000pt" height="100.000000pt" viewBox="0 0 100.000000 100.000000"
 preserveAspectRatio="xMidYMid meet">
<!-- <metadata>
Created by potrace 1.16, written by Peter Selinger 2001-2019
</metadata> -->
<g transform="translate(0.000000,100.000000) scale(0.100000,-0.100000)"
fill="#000000" stroke="none">
<path d="M273 879 l-213 -120 0 -254 0 -254 211 -126 c116 -69 219 -125 228
-125 9 0 108 53 221 118 l205 117 0 259 0 260 -205 122 c-113 68 -212 123
-220 123 -8 1 -111 -53 -227 -120z m197 -266 l32 -57 32 57 c28 51 34 57 64
57 17 0 32 -3 32 -6 0 -4 -20 -39 -45 -78 -25 -40 -45 -76 -45 -79 0 -4 23
-43 50 -87 28 -44 50 -82 50 -85 0 -3 -15 -5 -34 -5 -31 0 -38 5 -71 61 -41
67 -37 68 -85 -18 -20 -37 -28 -43 -57 -43 -18 0 -33 2 -33 5 0 3 23 42 51 86
28 45 48 87 46 94 -3 6 -26 44 -51 84 l-46 71 39 0 c37 0 41 -3 71 -57z"/>
</g>
</svg>
